<?xml version="1.0" encoding="UTF-8"?>
<svg width="177px" height="31px" viewBox="0 0 177 31" version="1.1" xmlns="http://www.w3.org/2000/svg" xmlns:xlink="http://www.w3.org/1999/xlink">
    <!-- Generator: Sketch 63.1 (92452) - https://sketch.com -->
    <title>thingadoo</title>
    <desc>Created with Sketch.</desc>
    <g id="Web-App" stroke="none" stroke-width="1" fill="none" fill-rule="evenodd">
        <g id="App-/-Home" transform="translate(-62.000000, -68.000000)" fill="#FFFFFF" fill-rule="nonzero">
            <g id="Navigation">
                <g id="Header">
                    <path d="M70.005,93.306 C70.8663333,93.306 71.6256667,93.2096667 72.283,93.017 C72.9403333,92.8243333 73.541,92.5693333 74.085,92.252 L74.085,88.104 C73.2916667,88.5346667 72.4416667,88.75 71.535,88.75 C70.4243333,88.75 69.869,88.1606667 69.869,86.982 L69.869,79.196 L74.153,79.196 L74.153,74.776 L69.869,74.776 L69.869,70.118 L64.701,70.118 L64.701,74.776 L62.525,74.776 L62.525,79.196 L64.701,79.196 L64.701,87.832 C64.701,88.8973333 64.8313333,89.7756667 65.092,90.467 C65.3526667,91.1583333 65.7153333,91.7193333 66.18,92.15 C66.6446667,92.5806667 67.2,92.881 67.846,93.051 C68.492,93.221 69.2116667,93.306 70.005,93.306 Z M83.129,93 L83.129,82.834 C83.129,81.61 83.418,80.6863333 83.996,80.063 C84.574,79.4396667 85.3616667,79.128 86.359,79.128 C87.3563333,79.128 88.127,79.4396667 88.671,80.063 C89.215,80.6863333 89.487,81.61 89.487,82.834 L89.487,93 L94.655,93 L94.655,81.202 C94.655,79.094 94.1166667,77.4393333 93.04,76.238 C91.9633333,75.0366667 90.439,74.436 88.467,74.436 C87.8096667,74.436 87.2203333,74.5153333 86.699,74.674 C86.1776667,74.8326667 85.7016667,75.048 85.271,75.32 C84.8403333,75.592 84.4493333,75.9036667 84.098,76.255 C83.7466667,76.6063333 83.4236667,76.9746667 83.129,77.36 L83.129,68.18 L77.961,68.18 L77.961,93 L83.129,93 Z M104.685,72.77 L104.685,68.18 L99.245,68.18 L99.245,72.77 L104.685,72.77 Z M104.549,93 L104.549,74.776 L99.381,74.776 L99.381,93 L104.549,93 Z M114.579,93 L114.579,82.834 C114.579,81.61 114.868,80.6863333 115.446,80.063 C116.024,79.4396667 116.811667,79.128 117.809,79.128 C118.806333,79.128 119.577,79.4396667 120.121,80.063 C120.665,80.6863333 120.937,81.61 120.937,82.834 L120.937,93 L126.105,93 L126.105,81.202 C126.105,79.094 125.566667,77.4393333 124.49,76.238 C123.413333,75.0366667 121.889,74.436 119.917,74.436 C119.259667,74.436 118.670333,74.5153333 118.149,74.674 C117.627667,74.8326667 117.151667,75.048 116.721,75.32 C116.290333,75.592 115.899333,75.9036667 115.548,76.255 C115.196667,76.6063333 114.873667,76.9746667 114.579,77.36 L114.579,74.776 L109.411,74.776 L109.411,93 L114.579,93 Z M138.753,98.508 C140.453,98.508 141.937667,98.3266667 143.207,97.964 C144.476333,97.6013333 145.536,97.0346667 146.386,96.264 C147.236,95.4933333 147.870667,94.5016667 148.29,93.289 C148.709333,92.0763333 148.919,90.6086667 148.919,88.886 L148.919,74.776 L143.751,74.776 L143.751,77.156 C143.048333,76.3853333 142.243667,75.7393333 141.337,75.218 C140.430333,74.6966667 139.274333,74.436 137.869,74.436 C136.826333,74.436 135.817667,74.623 134.843,74.997 C133.868333,75.371 133.007,75.9206667 132.259,76.646 C131.511,77.3713333 130.910333,78.261 130.457,79.315 C130.003667,80.369 129.777,81.576 129.777,82.936 L129.777,83.004 C129.777,84.364 129.998,85.571 130.44,86.625 C130.882,87.679 131.477,88.5686667 132.225,89.294 C132.973,90.0193333 133.834333,90.569 134.809,90.943 C135.783667,91.317 136.803667,91.504 137.869,91.504 C139.251667,91.504 140.396333,91.2433333 141.303,90.722 C142.209667,90.2006667 143.048333,89.4753333 143.819,88.546 L143.819,89.43 C143.819,91.062 143.394,92.2973333 142.544,93.136 C141.694,93.9746667 140.385,94.394 138.617,94.394 C137.393,94.394 136.299333,94.2466667 135.336,93.952 C134.372667,93.6573333 133.415,93.2493333 132.463,92.728 L130.695,96.604 C131.851,97.216 133.109,97.6863333 134.469,98.015 C135.829,98.3436667 137.257,98.508 138.753,98.508 Z M139.365,87.22 C138.095667,87.22 137.041667,86.8346667 136.203,86.064 C135.364333,85.2933333 134.945,84.2733333 134.945,83.004 L134.945,82.936 C134.945,82.324 135.058333,81.7573333 135.285,81.236 C135.511667,80.7146667 135.823333,80.267 136.22,79.893 C136.616667,79.519 137.081333,79.23 137.614,79.026 C138.146667,78.822 138.730333,78.72 139.365,78.72 C139.999667,78.72 140.589,78.822 141.133,79.026 C141.677,79.23 142.147333,79.519 142.544,79.893 C142.940667,80.267 143.252333,80.7146667 143.479,81.236 C143.705667,81.7573333 143.819,82.324 143.819,82.936 L143.819,83.004 C143.819,83.616 143.705667,84.1826667 143.479,84.704 C143.252333,85.2253333 142.940667,85.673 142.544,86.047 C142.147333,86.421 141.677,86.71 141.133,86.914 C140.589,87.118 139.999667,87.22 139.365,87.22 Z M158.711,93.34 C159.980333,93.34 161.057,93.1303333 161.941,92.711 C162.825,92.2916667 163.584333,91.7306667 164.219,91.028 L164.219,93 L169.217,93 L169.217,82.426 C169.217,79.9553333 168.571,78.0286667 167.279,76.646 C165.987,75.2633333 163.924333,74.572 161.091,74.572 C159.549667,74.572 158.235,74.708 157.147,74.98 C156.059,75.252 155.016333,75.6033333 154.019,76.034 L155.311,79.978 C156.149667,79.6606667 156.948667,79.417 157.708,79.247 C158.467333,79.077 159.345667,78.992 160.343,78.992 C161.635,78.992 162.609667,79.2753333 163.267,79.842 C163.924333,80.4086667 164.253,81.236 164.253,82.324 L164.253,82.63 C163.595667,82.4033333 162.921333,82.222 162.23,82.086 C161.538667,81.95 160.728333,81.882 159.799,81.882 C158.711,81.882 157.719333,82.001 156.824,82.239 C155.928667,82.477 155.158,82.834 154.512,83.31 C153.866,83.786 153.361667,84.3866667 152.999,85.112 C152.636333,85.8373333 152.455,86.6986667 152.455,87.696 L152.455,87.764 C152.455,88.6706667 152.619333,89.4696667 152.948,90.161 C153.276667,90.8523333 153.724333,91.436 154.291,91.912 C154.857667,92.388 155.520667,92.745 156.28,92.983 C157.039333,93.221 157.849667,93.34 158.711,93.34 Z M160.275,89.77 C159.436333,89.77 158.756333,89.5773333 158.235,89.192 C157.713667,88.8066667 157.453,88.2626667 157.453,87.56 L157.453,87.492 C157.453,86.676 157.770333,86.0526667 158.405,85.622 C159.039667,85.1913333 159.912333,84.976 161.023,84.976 C161.657667,84.976 162.252667,85.0383333 162.808,85.163 C163.363333,85.2876667 163.867667,85.452 164.321,85.656 L164.321,86.574 C164.321,87.526 163.952667,88.2966667 163.216,88.886 C162.479333,89.4753333 161.499,89.77 160.275,89.77 Z M181.151,93.34 C182.511,93.34 183.638667,93.0623333 184.534,92.507 C185.429333,91.9516667 186.194333,91.2433333 186.829,90.382 L186.829,93 L191.997,93 L191.997,68.18 L186.829,68.18 L186.829,77.156 C186.217,76.4306667 185.463333,75.796 184.568,75.252 C183.672667,74.708 182.533667,74.436 181.151,74.436 C180.063,74.436 179.020333,74.64 178.023,75.048 C177.025667,75.456 176.147333,76.0623333 175.388,76.867 C174.628667,77.6716667 174.016667,78.6576667 173.552,79.825 C173.087333,80.9923333 172.855,82.3353333 172.855,83.854 L172.855,83.922 C172.855,85.4406667 173.087333,86.7836667 173.552,87.951 C174.016667,89.1183333 174.634333,90.1043333 175.405,90.909 C176.175667,91.7136667 177.059667,92.32 178.057,92.728 C179.054333,93.136 180.085667,93.34 181.151,93.34 Z M182.477,88.954 C181.865,88.954 181.292667,88.835 180.76,88.597 C180.227333,88.359 179.757,88.019 179.349,87.577 C178.941,87.135 178.618,86.6023333 178.38,85.979 C178.142,85.3556667 178.023,84.67 178.023,83.922 L178.023,83.854 C178.023,83.0833333 178.142,82.392 178.38,81.78 C178.618,81.168 178.941,80.641 179.349,80.199 C179.757,79.757 180.227333,79.417 180.76,79.179 C181.292667,78.941 181.865,78.822 182.477,78.822 C183.089,78.822 183.661333,78.941 184.194,79.179 C184.726667,79.417 185.191333,79.757 185.588,80.199 C185.984667,80.641 186.302,81.1736667 186.54,81.797 C186.778,82.4203333 186.897,83.106 186.897,83.854 L186.897,83.922 C186.897,84.67 186.778,85.3556667 186.54,85.979 C186.302,86.6023333 185.984667,87.135 185.588,87.577 C185.191333,88.019 184.726667,88.359 184.194,88.597 C183.661333,88.835 183.089,88.954 182.477,88.954 Z M205.563,93.408 C206.991,93.408 208.305667,93.1586667 209.507,92.66 C210.708333,92.1613333 211.751,91.4813333 212.635,90.62 C213.519,89.7586667 214.210333,88.7556667 214.709,87.611 C215.207667,86.4663333 215.457,85.2366667 215.457,83.922 L215.457,83.854 C215.457,82.5393333 215.207667,81.3096667 214.709,80.165 C214.210333,79.0203333 213.524667,78.023 212.652,77.173 C211.779333,76.323 210.742333,75.6543333 209.541,75.167 C208.339667,74.6796667 207.036333,74.436 205.631,74.436 C204.203,74.436 202.888333,74.6853333 201.687,75.184 C200.485667,75.6826667 199.443,76.3626667 198.559,77.224 C197.675,78.0853333 196.983667,79.0883333 196.485,80.233 C195.986333,81.3776667 195.737,82.6073333 195.737,83.922 L195.737,83.99 C195.737,85.3046667 195.986333,86.5343333 196.485,87.679 C196.983667,88.8236667 197.669333,89.821 198.542,90.671 C199.414667,91.521 200.451667,92.1896667 201.653,92.677 C202.854333,93.1643333 204.157667,93.408 205.563,93.408 Z M205.631,88.954 C204.905667,88.954 204.254,88.818 203.676,88.546 C203.098,88.274 202.593667,87.9056667 202.163,87.441 C201.732333,86.9763333 201.403667,86.4436667 201.177,85.843 C200.950333,85.2423333 200.837,84.602 200.837,83.922 L200.837,83.854 C200.837,83.174 200.944667,82.5336667 201.16,81.933 C201.375333,81.3323333 201.687,80.8053333 202.095,80.352 C202.503,79.8986667 202.996,79.5416667 203.574,79.281 C204.152,79.0203333 204.815,78.89 205.563,78.89 C206.265667,78.89 206.911667,79.026 207.501,79.298 C208.090333,79.57 208.600333,79.9383333 209.031,80.403 C209.461667,80.8676667 209.790333,81.4003333 210.017,82.001 C210.243667,82.6016667 210.357,83.242 210.357,83.922 L210.357,83.99 C210.357,84.67 210.249333,85.3103333 210.034,85.911 C209.818667,86.5116667 209.507,87.0386667 209.099,87.492 C208.691,87.9453333 208.198,88.3023333 207.62,88.563 C207.042,88.8236667 206.379,88.954 205.631,88.954 Z M228.139,93.408 C229.567,93.408 230.881667,93.1586667 232.083,92.66 C233.284333,92.1613333 234.327,91.4813333 235.211,90.62 C236.095,89.7586667 236.786333,88.7556667 237.285,87.611 C237.783667,86.4663333 238.033,85.2366667 238.033,83.922 L238.033,83.854 C238.033,82.5393333 237.783667,81.3096667 237.285,80.165 C236.786333,79.0203333 236.100667,78.023 235.228,77.173 C234.355333,76.323 233.318333,75.6543333 232.117,75.167 C230.915667,74.6796667 229.612333,74.436 228.207,74.436 C226.779,74.436 225.464333,74.6853333 224.263,75.184 C223.061667,75.6826667 222.019,76.3626667 221.135,77.224 C220.251,78.0853333 219.559667,79.0883333 219.061,80.233 C218.562333,81.3776667 218.313,82.6073333 218.313,83.922 L218.313,83.99 C218.313,85.3046667 218.562333,86.5343333 219.061,87.679 C219.559667,88.8236667 220.245333,89.821 221.118,90.671 C221.990667,91.521 223.027667,92.1896667 224.229,92.677 C225.430333,93.1643333 226.733667,93.408 228.139,93.408 Z M228.207,88.954 C227.481667,88.954 226.83,88.818 226.252,88.546 C225.674,88.274 225.169667,87.9056667 224.739,87.441 C224.308333,86.9763333 223.979667,86.4436667 223.753,85.843 C223.526333,85.2423333 223.413,84.602 223.413,83.922 L223.413,83.854 C223.413,83.174 223.520667,82.5336667 223.736,81.933 C223.951333,81.3323333 224.263,80.8053333 224.671,80.352 C225.079,79.8986667 225.572,79.5416667 226.15,79.281 C226.728,79.0203333 227.391,78.89 228.139,78.89 C228.841667,78.89 229.487667,79.026 230.077,79.298 C230.666333,79.57 231.176333,79.9383333 231.607,80.403 C232.037667,80.8676667 232.366333,81.4003333 232.593,82.001 C232.819667,82.6016667 232.933,83.242 232.933,83.922 L232.933,83.99 C232.933,84.67 232.825333,85.3103333 232.61,85.911 C232.394667,86.5116667 232.083,87.0386667 231.675,87.492 C231.267,87.9453333 230.774,88.3023333 230.196,88.563 C229.618,88.8236667 228.955,88.954 228.207,88.954 Z" id="thingadoo"></path>
                </g>
            </g>
        </g>
    </g>
</svg>