<?xml version="1.0" encoding="UTF-8"?>
<svg width="24px" height="24px" viewBox="0 0 24 24" version="1.1" xmlns="http://www.w3.org/2000/svg" xmlns:xlink="http://www.w3.org/1999/xlink">
    <!-- Generator: Sketch 63.1 (92452) - https://sketch.com -->
    <title>Icon / Calendar</title>
    <desc>Created with Sketch.</desc>
    <g id="Icon-/-Calendar" stroke="none" stroke-width="1" fill="none" fill-rule="evenodd" opacity="0.5">
        <path d="M22.59375,13.6992188 L22.59375,2.15625 C22.59375,1.76788331 22.2789917,1.453125 21.890625,1.453125 L18.328125,1.453125 L18.328125,0.703125 C18.328125,0.314758312 18.0133667,0 17.625,0 C17.2366333,0 16.921875,0.314758313 16.921875,0.703125 L16.921875,1.453125 L14.109375,1.453125 L14.109375,0.703125 C14.109375,0.314758312 13.7946167,0 13.40625,0 C13.0178833,0 12.703125,0.314758313 12.703125,0.703125 L12.703125,1.453125 L9.890625,1.453125 L9.890625,0.703125 C9.890625,0.314758312 9.57586669,0 9.1875,0 C8.79913331,0 8.484375,0.314758313 8.484375,0.703125 L8.484375,1.453125 L5.671875,1.453125 L5.671875,0.703125 C5.671875,0.314758312 5.35711669,0 4.96875,0 C4.58038331,0 4.265625,0.314758313 4.265625,0.703125 L4.265625,1.453125 L0.703125,1.453125 C0.314758312,1.453125 0,1.76788331 0,2.15625 L0,20.484375 C0,20.8727417 0.314758313,21.1875 0.703125,21.1875 L12.4127198,21.1875 C13.5494385,22.8821411 15.4824829,24 17.671875,24 C21.1611328,24 24,21.1611328 24,17.671875 C24,16.1685791 23.4726562,14.7861328 22.59375,13.6992188 Z M4.265625,2.859375 L4.265625,3.5625 C4.265625,3.95086669 4.58038331,4.265625 4.96875,4.265625 C5.35711669,4.265625 5.671875,3.95086669 5.671875,3.5625 L5.671875,2.859375 L8.484375,2.859375 L8.484375,3.5625 C8.484375,3.95086669 8.79913331,4.265625 9.1875,4.265625 C9.57586669,4.265625 9.890625,3.95086669 9.890625,3.5625 L9.890625,2.859375 L12.703125,2.859375 L12.703125,3.5625 C12.703125,3.95086669 13.0178833,4.265625 13.40625,4.265625 C13.7946167,4.265625 14.109375,3.95086669 14.109375,3.5625 L14.109375,2.859375 L16.921875,2.859375 L16.921875,3.5625 C16.921875,3.95086669 17.2366333,4.265625 17.625,4.265625 C18.0133667,4.265625 18.328125,3.95086669 18.328125,3.5625 L18.328125,2.859375 L21.1875,2.859375 L21.1875,5.671875 L1.40625,5.671875 L1.40625,2.859375 L4.265625,2.859375 Z M1.40625,19.78125 L1.40625,7.078125 L21.1875,7.078125 L21.1875,12.4127197 C20.1813354,11.7379761 18.9717407,11.34375 17.671875,11.34375 C15.4500732,11.34375 13.4923096,12.4949341 12.3629151,14.2318725 C12.2678833,14.1838989 12.1607666,14.15625 12.046875,14.15625 L10.640625,14.15625 C10.2522583,14.15625 9.9375,14.4710083 9.9375,14.859375 C9.9375,15.2477417 10.2522583,15.5625 10.640625,15.5625 L11.7057495,15.5625 C11.5469971,16.010376 11.4371338,16.4813232 11.3831177,16.96875 L10.640625,16.96875 C10.2522583,16.96875 9.9375,17.2835083 9.9375,17.671875 C9.9375,18.0602417 10.2522583,18.375 10.640625,18.375 L11.3831177,18.375 C11.4371338,18.8624268 11.546814,19.333374 11.7057495,19.78125 L1.40625,19.78125 Z M17.671875,12.75 C20.3858643,12.75 22.59375,14.9578857 22.59375,17.671875 C22.59375,20.3858643 20.3858643,22.59375 17.671875,22.59375 C14.9578857,22.59375 12.75,20.3858643 12.75,17.671875 C12.75,14.9578857 14.9578857,12.75 17.671875,12.75 Z M17.671875,14.15625 C17.2835083,14.15625 16.96875,14.4710083 16.96875,14.859375 L16.968,17 L14.703125,17 C14.3147583,17 14,17.3147583 14,17.703125 C14,18.0914917 14.3147583,18.40625 14.703125,18.40625 L16.8125,18.40625 L16.8125,20.515625 C16.8125,20.9039917 17.1272583,21.21875 17.515625,21.21875 C17.9039917,21.21875 18.21875,20.9039917 18.21875,20.515625 L18.218,18.375 L20.484375,18.375 C20.8727417,18.375 21.1875,18.0602417 21.1875,17.671875 C21.1875,17.2835083 20.8727417,16.96875 20.484375,16.96875 L18.375,16.96875 L18.375,14.859375 C18.375,14.4710083 18.0602417,14.15625 17.671875,14.15625 Z M6.375,16.96875 C6.76336669,16.96875 7.078125,17.2835083 7.078125,17.671875 C7.078125,18.0602417 6.76336669,18.375 6.375,18.375 L6.375,18.375 L4.96875,18.375 C4.58038331,18.375 4.265625,18.0602417 4.265625,17.671875 C4.265625,17.2835083 4.58038331,16.96875 4.96875,16.96875 L4.96875,16.96875 Z M6.375,14.15625 C6.76336669,14.15625 7.078125,14.4710083 7.078125,14.859375 C7.078125,15.2477417 6.76336669,15.5625 6.375,15.5625 L6.375,15.5625 L4.96875,15.5625 C4.58038331,15.5625 4.265625,15.2477417 4.265625,14.859375 C4.265625,14.4710083 4.58038331,14.15625 4.96875,14.15625 L4.96875,14.15625 Z M6.375,11.34375 C6.76336669,11.34375 7.078125,11.6585083 7.078125,12.046875 C7.078125,12.4352417 6.76336669,12.75 6.375,12.75 L6.375,12.75 L4.96875,12.75 C4.58038331,12.75 4.265625,12.4352417 4.265625,12.046875 C4.265625,11.6585083 4.58038331,11.34375 4.96875,11.34375 L4.96875,11.34375 Z M12.046875,11.34375 C12.4352417,11.34375 12.75,11.6585083 12.75,12.046875 C12.75,12.4352417 12.4352417,12.75 12.046875,12.75 L12.046875,12.75 L10.640625,12.75 C10.2522583,12.75 9.9375,12.4352417 9.9375,12.046875 C9.9375,11.6585083 10.2522583,11.34375 10.640625,11.34375 L10.640625,11.34375 Z M6.375,8.53125 C6.76336669,8.53125 7.078125,8.84600831 7.078125,9.234375 C7.078125,9.62274169 6.76336669,9.9375 6.375,9.9375 L6.375,9.9375 L4.96875,9.9375 C4.58038331,9.9375 4.265625,9.62274169 4.265625,9.234375 C4.265625,8.84600831 4.58038331,8.53125 4.96875,8.53125 L4.96875,8.53125 Z M12.046875,8.53125 C12.4352417,8.53125 12.75,8.84600831 12.75,9.234375 C12.75,9.62274169 12.4352417,9.9375 12.046875,9.9375 L12.046875,9.9375 L10.640625,9.9375 C10.2522583,9.9375 9.9375,9.62274169 9.9375,9.234375 C9.9375,8.84600831 10.2522583,8.53125 10.640625,8.53125 L10.640625,8.53125 Z M17.671875,8.53125 C18.0602417,8.53125 18.375,8.84600831 18.375,9.234375 C18.375,9.62274169 18.0602417,9.9375 17.671875,9.9375 L17.671875,9.9375 L16.265625,9.9375 C15.8772583,9.9375 15.5625,9.62274169 15.5625,9.234375 C15.5625,8.84600831 15.8772583,8.53125 16.265625,8.53125 L16.265625,8.53125 Z" id="Shape" fill="#FFFFFF" fill-rule="nonzero"></path>
    </g>
</svg>