<?xml version="1.0" encoding="UTF-8"?>
<svg width="24px" height="24px" viewBox="0 0 24 24" version="1.1" xmlns="http://www.w3.org/2000/svg" xmlns:xlink="http://www.w3.org/1999/xlink">
    <!-- Generator: Sketch 63.1 (92452) - https://sketch.com -->
    <title>Icon / Clock</title>
    <desc>Created with Sketch.</desc>
    <g id="Icon-/-Clock" stroke="none" stroke-width="1" fill="none" fill-rule="evenodd" opacity="0.5">
        <path d="M12,0 C5.36760937,0 0,5.36704687 0,12 C0,18.6323906 5.36704687,24 12,24 C18.6323438,24 24,18.6329531 24,12 C24,5.36765625 18.6329531,0 12,0 Z M12,1.59998438 C17.7345469,1.59998438 22.4000156,6.26545312 22.4000156,12 C22.4000156,17.7345469 17.7345469,22.4000156 12,22.4000156 C6.26545312,22.4000156 1.59998438,17.7345938 1.59998438,12 C1.59998438,6.26540625 6.26545312,1.59998438 12,1.59998438 Z M11.0587031,6.50460938 C10.6168594,6.50460938 10.2586875,6.86278125 10.2586875,7.304625 L10.2586875,12.5603438 C10.2586875,13.0021406 10.6168594,13.3603594 11.0587031,13.3603594 L14.4738281,13.3603594 C14.915625,13.3603594 15.2738438,13.0021875 15.2738438,12.5603438 C15.2738438,12.1185 14.9156719,11.760375 14.473875,11.760375 L11.8587188,11.760375 L11.8587188,7.304625 C11.8587188,6.86282813 11.5005469,6.50460938 11.0587031,6.50460938 Z" id="Shape" fill="#FFFFFF" fill-rule="nonzero"></path>
    </g>
</svg>