<?xml version="1.0" encoding="UTF-8"?>
<svg width="24px" height="24px" viewBox="0 0 24 24" version="1.1" xmlns="http://www.w3.org/2000/svg" xmlns:xlink="http://www.w3.org/1999/xlink">
    <!-- Generator: Sketch 63.1 (92452) - https://sketch.com -->
    <title>Icon / Cross</title>
    <desc>Created with Sketch.</desc>
    <g id="Icon-/-Cross" stroke="none" stroke-width="1" fill="none" fill-rule="evenodd" opacity="0.5">
        <path d="M13.7864531,12.0000469 L23.6301094,2.15639062 C24.123375,1.66307812 24.123375,0.863296875 23.6301094,0.37003125 C23.1367969,-0.12328125 22.3369688,-0.12328125 21.8437031,0.37003125 L12,10.2136875 L2.15634375,0.37003125 C1.66303125,-0.12328125 0.86325,-0.12328125 0.369984375,0.37003125 C-0.12328125,0.86334375 -0.123328125,1.663125 0.369984375,2.15639062 L10.2136406,12.0000469 L0.369984375,21.8437031 C-0.123328125,22.3370156 -0.123328125,23.1367969 0.369984375,23.6300625 C0.863296875,24.123375 1.66307813,24.1233281 2.15634375,23.6300625 L12,13.7864062 L21.8436094,23.6300625 C22.3369219,24.123375 23.13675,24.1233281 23.6300156,23.6300625 C24.1232813,23.13675 24.1232813,22.3369687 23.6300156,21.8437031 L13.7864531,12.0000469 Z" id="Path" fill="#FFFFFF" fill-rule="nonzero"></path>
    </g>
</svg>