<?xml version="1.0" encoding="UTF-8"?>
<svg width="24px" height="24px" viewBox="0 0 24 24" version="1.1" xmlns="http://www.w3.org/2000/svg" xmlns:xlink="http://www.w3.org/1999/xlink">
    <!-- Generator: Sketch 63.1 (92452) - https://sketch.com -->
    <title>Icon / Exhibits</title>
    <desc>Created with Sketch.</desc>
    <g id="Icon-/-Exhibits" stroke="none" stroke-width="1" fill="none" fill-rule="evenodd" opacity="0.5">
        <path d="M21.28125,4.92191016 C21.28125,2.20644141 19.0865625,0.00364453125 16.3660312,0 C16.3614375,0 16.3568437,0 16.35225,0 L7.921875,0 C5.20795313,0 3,2.20798828 3,4.92191016 C3,6.41633203 3.67701563,7.81034766 4.81096875,8.73570703 C3.58832813,10.1227852 3,11.7327539 3,13.3594102 C3,16.8829102 5.72765625,19.6820977 9.17259375,20.6777695 C9.43265625,21.343582 9.16284375,21.9438164 8.30896875,22.639207 C8.19421875,22.7326758 8.118375,22.7944102 8.04867188,22.8941133 C7.7233125,23.3596289 8.05767188,24.0000352 8.625,24.0000352 L15.65625,24.0000352 C16.2240469,24.0000352 16.5576094,23.3593945 16.2326719,22.8942539 C16.1625469,22.7938945 16.0828594,22.729582 15.9724688,22.6406133 C15.1148906,21.9489727 14.8448906,21.3485039 15.1082813,20.6779102 C18.5518125,19.682707 21.28125,16.8832383 21.28125,13.3594102 C21.28125,11.6135039 20.6060625,10.0216289 19.4709375,8.73425391 C20.5997812,7.80936328 21.28125,6.43334766 21.28125,4.92191016 Z M15.9840469,1.88609766 L16.5910781,1.41369141 C18.4215938,1.53205078 19.875,3.05258203 19.875,4.92191016 C19.875,6.06017578 19.3339219,7.09423828 18.443625,7.75287891 C17.554125,7.03569141 16.5015469,6.47722266 15.3358125,6.10986328 C15.0880781,6.03176953 14.8980469,5.85411328 14.8274531,5.63464453 C14.3894063,4.27175391 14.8541719,2.76533203 15.9840469,1.88609766 Z M4.40625,4.92191016 C4.40625,3.06092578 5.8599375,1.53392578 7.69134375,1.41467578 L8.29720313,1.88614453 C9.42707812,2.76537891 9.89189063,4.27175391 9.45379688,5.63459766 C9.38320313,5.85411328 9.19317188,6.03176953 8.9454375,6.10986328 C7.77951563,6.47726953 6.72717188,7.03625391 5.837625,7.75362891 C4.94475,7.09578516 4.40625,6.04855078 4.40625,4.92191016 Z M14.4422812,19.4018789 C14.2572187,19.4491758 14.0992969,19.5697383 14.0049375,19.7358164 C13.4814375,20.657332 13.4492344,21.6526289 14.0294063,22.5937852 L10.2474375,22.5937852 C10.8260625,21.6564727 10.8023906,20.6617852 10.2763125,19.7358164 C10.1819531,19.5697383 10.0240312,19.4491758 9.83896875,19.4018789 C7.21125,18.7308164 5.28103125,17.0143945 4.63846875,14.9097539 L6.55073437,12.9975352 L8.86607812,15.3128789 C9.140625,15.5874727 9.58584375,15.5874727 9.8604375,15.3128789 L12.1757812,12.9975352 L14.491125,15.3128789 C14.7656719,15.5874258 15.2108906,15.5874727 15.4854844,15.3128789 L17.8008281,12.9975352 L19.6590938,14.8557539 C19.0332187,16.9850039 17.0924531,18.7250508 14.4422812,19.4018789 Z M19.8667031,13.0746914 L18.2979375,11.5059258 C18.0233906,11.231332 17.5781719,11.2313789 17.3035781,11.5059258 L14.9882344,13.8212695 L12.6728906,11.5059258 C12.3983437,11.231332 11.953125,11.231332 11.6785312,11.5059258 L9.3631875,13.8212695 L7.04784375,11.5059258 C6.77329687,11.231332 6.32807812,11.2313789 6.05348437,11.5059258 L4.4109375,13.1485664 C4.515375,10.6330195 6.48075,8.36094141 9.36815625,7.45105078 C10.0501406,7.23612891 10.5825938,6.71797266 10.7925938,6.06495703 C11.3158125,4.43726953 10.926375,2.66455078 9.82748438,1.40623828 L14.4538125,1.40623828 C13.3549687,2.66455078 12.9654844,4.43726953 13.4887031,6.06500391 C13.6986562,6.71797266 14.2311562,7.23612891 14.9131875,7.45105078 C17.7722344,8.35203516 19.72725,10.5886289 19.8667031,13.0746914 Z" id="Shape" fill="#FFFFFF" fill-rule="nonzero"></path>
    </g>
</svg>