<?xml version="1.0" encoding="UTF-8"?>
<svg width="24px" height="24px" viewBox="0 0 24 24" version="1.1" xmlns="http://www.w3.org/2000/svg" xmlns:xlink="http://www.w3.org/1999/xlink">
    <!-- Generator: Sketch 63.1 (92452) - https://sketch.com -->
    <title>Icon / Family Fun</title>
    <desc>Created with Sketch.</desc>
    <g id="Icon-/-Family-Fun" stroke="none" stroke-width="1" fill="none" fill-rule="evenodd" opacity="0.5">
        <path d="M22.546875,13.1885376 L22.546875,10.546875 C22.546875,8.60833739 20.9697876,7.03125 19.03125,7.03125 C17.0927124,7.03125 15.515625,8.60833739 15.515625,10.546875 L15.515625,12.65625 L8.484375,12.65625 L8.484375,9.84375 C8.484375,7.51757812 6.59179688,5.625 4.265625,5.625 C1.92553711,5.625 0,7.52014162 0,9.84375 L0,16.171875 C0,16.5602417 0.314758313,16.875 0.703125,16.875 L1.453125,16.875 L1.453125,23.296875 C1.453125,23.6852417 1.76788331,24 2.15625,24 L6.375,24 C6.76336669,24 7.078125,23.6852417 7.078125,23.296875 L7.078125,16.875 L9.890625,16.875 L9.890625,23.296875 C9.890625,23.6852417 10.2053833,24 10.59375,24 L13.40625,24 C13.7946167,24 14.109375,23.6852417 14.109375,23.296875 L14.109375,16.875 L16.921875,16.875 L16.921875,23.296875 C16.921875,23.6852417 17.2366333,24 17.625,24 L20.4375,24 C20.8258667,24 21.140625,23.6852417 21.140625,23.296875 L21.140625,16.875 L23.296875,16.875 C23.5422363,16.875 23.7698364,16.7471924 23.8974609,16.5375366 C24.0250854,16.328064 24.0342407,16.0671387 23.9216309,15.84906 L22.546875,13.1885376 Z M6.375,15.46875 C5.98663331,15.46875 5.671875,15.7835083 5.671875,16.171875 L5.671875,22.59375 L2.859375,22.59375 L2.859375,16.171875 C2.859375,15.7835083 2.54461669,15.46875 2.15625,15.46875 L1.40625,15.46875 L1.40625,9.84375 C1.40625,8.2930298 2.6889038,7.03125 4.265625,7.03125 C5.81652834,7.03125 7.078125,8.2930298 7.078125,9.84375 L7.078125,15.46875 L6.375,15.46875 Z M13.40625,15.4692993 C13.0178833,15.4692993 12.703125,15.7835083 12.703125,16.171875 L12.703125,22.59375 L11.296875,22.59375 L11.296875,16.171875 C11.296875,15.7835083 10.9821167,15.46875 10.59375,15.46875 L8.484375,15.46875 L8.484375,14.0625 L15.0811157,14.0625 L14.3779907,15.4691162 L13.40625,15.4692993 Z M19.03125,8.4375 C20.1943359,8.4375 21.140625,9.38378906 21.140625,10.546875 L21.140625,13.359375 C21.140625,13.4716186 21.1675415,13.5823974 21.2191772,13.68219 L22.1422119,15.46875 L20.4375,15.46875 C20.0491333,15.46875 19.734375,15.7835083 19.734375,16.171875 L19.734375,22.59375 L18.328125,22.59375 L18.328125,16.171875 C18.328125,15.8158722 18.0636406,15.5221825 17.7204186,15.4757064 L17.6255013,15.4692911 C17.6269157,15.4692763 17.4309909,15.4692343 15.9503174,15.4691162 L16.8475342,13.6737671 C16.8920288,13.5847778 16.921875,13.4712525 16.921875,13.359375 L16.921875,10.546875 C16.921875,9.38378906 17.8681641,8.4375 19.03125,8.4375 Z M12,8.4375 C13.1630859,8.4375 14.109375,9.38378906 14.109375,10.546875 C14.109375,11.7099609 13.1630859,12.65625 12,12.65625 C10.8369141,12.65625 9.890625,11.7099609 9.890625,10.546875 C9.890625,9.38378906 10.8369141,8.4375 12,8.4375 Z M12,9.84375 C11.6123657,9.84375 11.296875,10.1592407 11.296875,10.546875 C11.296875,10.9345093 11.6123657,11.25 12,11.25 C12.3878174,11.25 12.703125,10.9345093 12.703125,10.546875 C12.703125,10.1592407 12.3876343,9.84375 12,9.84375 Z M19.03125,1.40625 C20.5821533,1.40625 21.84375,2.6680298 21.84375,4.21875 C21.84375,5.76965334 20.5821533,7.03125 19.03125,7.03125 C17.4803467,7.03125 16.21875,5.76965334 16.21875,4.21875 C16.21875,2.6680298 17.4803467,1.40625 19.03125,1.40625 Z M13.4197998,0 C14.6101685,0 15.5427246,0.985839844 15.5427246,2.24432372 C15.5427246,3.59564208 14.4470215,4.47381591 13.1905518,5.53417969 C12.9572754,5.73120117 12.7159424,5.93481445 12.4605103,6.15637209 C12.3283081,6.270813 12.1642456,6.328125 12,6.328125 C11.8357544,6.328125 11.6716919,6.270813 11.5394897,6.15637209 C11.2840576,5.93499755 11.0429077,5.73138427 10.8096314,5.53454588 C9.44403075,4.38189698 8.45727539,3.54913331 8.45727539,2.24432372 C8.45727539,0.985839844 9.38983153,0 10.5802002,0 C11.1932373,0 11.6603393,0.254150391 12,0.589965844 C12.3396607,0.254150391 12.8067627,0 13.4197998,0 Z M4.265625,0 C5.81652834,0 7.078125,1.2617798 7.078125,2.8125 C7.078125,4.36340334 5.81652834,5.625 4.265625,5.625 C2.71472166,5.625 1.453125,4.36340334 1.453125,2.8125 C1.453125,1.2617798 2.71472166,0 4.265625,0 Z M19.03125,2.8125 C18.2557983,2.8125 17.625,3.44329833 17.625,4.21875 C17.625,4.99420167 18.2557983,5.625 19.03125,5.625 C19.8067017,5.625 20.4375,4.99420167 20.4375,4.21875 C20.4375,3.44329833 19.8067017,2.8125 19.03125,2.8125 Z M13.4197998,1.40625 C12.8904419,1.40625 12.6795044,2.11413572 12.6776733,2.12127684 C12.5927124,2.42797852 12.3118286,2.6445923 11.9956055,2.64257812 C11.6781006,2.63983153 11.4036255,2.43054197 11.3230591,2.12384034 C11.3052979,2.06579588 11.0923462,1.40625 10.5802002,1.40625 C10.1098022,1.40625 9.86352539,1.82794191 9.86352539,2.24432372 C9.86352539,2.86688231 10.4989013,3.43212891 11.7167358,4.45989989 C11.8095703,4.53845213 11.9038696,4.61791992 12,4.69940184 C12.0961304,4.61791992 12.1906128,4.53826903 12.2836304,4.4597168 C13.4371948,3.48596194 14.1364746,2.89251708 14.1364746,2.24432372 C14.1364746,1.82794191 13.8901978,1.40625 13.4197998,1.40625 Z M4.265625,1.40625 C3.49017333,1.40625 2.859375,2.03704833 2.859375,2.8125 C2.859375,3.58795167 3.49017333,4.21875 4.265625,4.21875 C5.04107667,4.21875 5.671875,3.58795167 5.671875,2.8125 C5.671875,2.03704833 5.04107667,1.40625 4.265625,1.40625 Z" id="Shape" fill="#FFFFFF" fill-rule="nonzero"></path>
    </g>
</svg>