<?xml version="1.0" encoding="UTF-8"?>
<svg width="24px" height="24px" viewBox="0 0 24 24" version="1.1" xmlns="http://www.w3.org/2000/svg" xmlns:xlink="http://www.w3.org/1999/xlink">
    <!-- Generator: Sketch 63.1 (92452) - https://sketch.com -->
    <title>Icon / Feed</title>
    <desc>Created with Sketch.</desc>
    <g id="Icon-/-Feed" stroke="none" stroke-width="1" fill="none" fill-rule="evenodd" opacity="0.5">
        <path d="M23.296875,7.21875 L21.1875,7.21875 L21.1875,5.13867188 C21.1875,3.97503661 20.2410278,3 19.078125,3 L2.109375,3 C0.946289062,3 0,3.94628906 0,5.109375 L0,17.765625 C0,19.7041626 1.57708739,21.28125 3.515625,21.28125 L20.484375,21.28125 C22.4229126,21.28125 24,19.7041626 24,17.765625 L24,7.921875 C24,7.53350831 23.6852417,7.21875 23.296875,7.21875 Z M18.375,5.109375 C18.375,4.71533203 18.6987305,4.39562991 19.0984497,4.40661619 C19.4749146,4.41687009 19.78125,4.74536133 19.78125,5.13867188 L19.78125,15.65625 L18.375,15.65625 L18.375,5.109375 Z M1.40625,17.765625 L1.40625,5.109375 C1.40625,4.72174073 1.72174073,4.40625 2.109375,4.40625 L17.088501,4.40625 C17.0099487,4.62890625 16.96875,4.86566161 16.96875,5.109375 L16.96875,17.765625 C16.96875,18.5564575 17.2313232,19.2870483 17.673706,19.875 L3.515625,19.875 C2.35253906,19.875 1.40625,18.9287109 1.40625,17.765625 Z M22.59375,8.625 L22.59375,17.765625 C22.59375,18.9287109 21.6474609,19.875 20.484375,19.875 C19.3212891,19.875 18.375,18.9287109 18.375,17.765625 L18.375,17.0625 L20.484375,17.0625 C20.8727417,17.0625 21.1875,16.7477417 21.1875,16.359375 L21.1875,8.625 L22.59375,8.625 Z M9.234375,11.4375 C9.62274169,11.4375 9.9375,11.7522583 9.9375,12.140625 L9.9375,12.140625 L9.9375,17.765625 C9.9375,18.1539917 9.62274169,18.46875 9.234375,18.46875 L9.234375,18.46875 L3.5625,18.46875 C3.17413331,18.46875 2.859375,18.1539917 2.859375,17.765625 L2.859375,17.765625 L2.859375,12.140625 C2.859375,11.7522583 3.17413331,11.4375 3.5625,11.4375 L3.5625,11.4375 Z M14.859375,17.0625 C15.2477417,17.0625 15.5625,17.3772583 15.5625,17.765625 C15.5625,18.1539917 15.2477417,18.46875 14.859375,18.46875 L14.859375,18.46875 L12,18.46875 C11.6116333,18.46875 11.296875,18.1539917 11.296875,17.765625 C11.296875,17.3772583 11.6116333,17.0625 12,17.0625 L12,17.0625 Z M8.53125,12.84375 L4.265625,12.84375 L4.265625,17.0625 L8.53125,17.0625 L8.53125,12.84375 Z M14.859375,14.25 C15.2477417,14.25 15.5625,14.5647583 15.5625,14.953125 C15.5625,15.3414917 15.2477417,15.65625 14.859375,15.65625 L14.859375,15.65625 L12,15.65625 C11.6116333,15.65625 11.296875,15.3414917 11.296875,14.953125 C11.296875,14.5647583 11.6116333,14.25 12,14.25 L12,14.25 Z M14.859375,11.4375 C15.2477417,11.4375 15.5625,11.7522583 15.5625,12.140625 C15.5625,12.5289917 15.2477417,12.84375 14.859375,12.84375 L14.859375,12.84375 L12,12.84375 C11.6116333,12.84375 11.296875,12.5289917 11.296875,12.140625 C11.296875,11.7522583 11.6116333,11.4375 12,11.4375 L12,11.4375 Z M14.859375,8.625 C15.2477417,8.625 15.5625,8.93975831 15.5625,9.328125 C15.5625,9.71649169 15.2477417,10.03125 14.859375,10.03125 L14.859375,10.03125 L3.515625,10.03125 C3.12725831,10.03125 2.8125,9.71649169 2.8125,9.328125 C2.8125,8.93975831 3.12725831,8.625 3.515625,8.625 L3.515625,8.625 Z M14.859375,5.8125 C15.2477417,5.8125 15.5625,6.12725831 15.5625,6.515625 C15.5625,6.90399169 15.2477417,7.21875 14.859375,7.21875 L14.859375,7.21875 L3.515625,7.21875 C3.12725831,7.21875 2.8125,6.90399169 2.8125,6.515625 C2.8125,6.12725831 3.12725831,5.8125 3.515625,5.8125 L3.515625,5.8125 Z" id="Shape" fill="#FFFFFF" fill-rule="nonzero"></path>
    </g>
</svg>