<?xml version="1.0" encoding="UTF-8"?>
<svg width="24px" height="24px" viewBox="0 0 24 24" version="1.1" xmlns="http://www.w3.org/2000/svg" xmlns:xlink="http://www.w3.org/1999/xlink">
    <!-- Generator: Sketch 63.1 (92452) - https://sketch.com -->
    <title>Icon / Film</title>
    <desc>Created with Sketch.</desc>
    <g id="Icon-/-Film" stroke="none" stroke-width="1" fill="none" fill-rule="evenodd" opacity="0.5">
        <path d="M23.296875,16.875 L21.0442969,16.875 C22.024125,15.1834687 22.546875,13.2570469 22.546875,11.25 C22.546875,5.03217188 17.5152656,0 11.296875,0 C5.06775,0 0,5.04675 0,11.25 C0,17.1411094 4.57073437,21.9885469 10.3659844,22.4615625 C10.4375156,22.4860781 10.5139219,22.5 10.59375,22.5 L23.296875,22.5 C23.6851875,22.5 24,22.1851875 24,21.796875 L24,17.578125 C24,17.1898125 23.6851875,16.875 23.296875,16.875 Z M1.40625,11.25 C1.40625,5.82215625 5.84315625,1.40625 11.296875,1.40625 C16.7247187,1.40625 21.140625,5.82215625 21.140625,11.25 C21.140625,16.6778438 16.7247187,21.09375 11.296875,21.09375 C5.84315625,21.09375 1.40625,16.6778438 1.40625,11.25 Z M22.59375,18.28125 L22.59375,21.09375 L16.7522812,21.09375 C17.9963437,20.4019219 19.1335312,19.4584219 20.0796094,18.28125 L22.59375,18.28125 Z M11.296875,14.0625 C12.8476875,14.0625 14.109375,15.3241875 14.109375,16.875 C14.109375,18.4258125 12.8476875,19.6875 11.296875,19.6875 C9.7460625,19.6875 8.484375,18.4258125 8.484375,16.875 C8.484375,15.3241875 9.7460625,14.0625 11.296875,14.0625 Z M11.296875,15.46875 C10.5214688,15.46875 9.890625,16.0995938 9.890625,16.875 C9.890625,17.6504062 10.5214688,18.28125 11.296875,18.28125 C12.0722812,18.28125 12.703125,17.6504062 12.703125,16.875 C12.703125,16.0995938 12.0722813,15.46875 11.296875,15.46875 Z M5.671875,8.4375 C7.2226875,8.4375 8.484375,9.6991875 8.484375,11.25 C8.484375,12.8008125 7.2226875,14.0625 5.671875,14.0625 C4.1210625,14.0625 2.859375,12.8008125 2.859375,11.25 C2.859375,9.6991875 4.1210625,8.4375 5.671875,8.4375 Z M16.921875,8.4375 C18.4726875,8.4375 19.734375,9.6991875 19.734375,11.25 C19.734375,12.8008125 18.4726875,14.0625 16.921875,14.0625 C15.3710625,14.0625 14.109375,12.8008125 14.109375,11.25 C14.109375,9.6991875 15.3710625,8.4375 16.921875,8.4375 Z M5.671875,9.84375 C4.89646875,9.84375 4.265625,10.4745938 4.265625,11.25 C4.265625,12.0254062 4.89646875,12.65625 5.671875,12.65625 C6.44728125,12.65625 7.078125,12.0254063 7.078125,11.25 C7.078125,10.4745938 6.44728125,9.84375 5.671875,9.84375 Z M16.921875,9.84375 C16.1464688,9.84375 15.515625,10.4745938 15.515625,11.25 C15.515625,12.0254062 16.1464687,12.65625 16.921875,12.65625 C17.6972812,12.65625 18.328125,12.0254063 18.328125,11.25 C18.328125,10.4745938 17.6972812,9.84375 16.921875,9.84375 Z M11.296875,9.84375 C12.0722812,9.84375 12.703125,10.4745938 12.703125,11.25 C12.703125,12.0254062 12.0722813,12.65625 11.296875,12.65625 C10.5214688,12.65625 9.890625,12.0254063 9.890625,11.25 C9.890625,10.4745938 10.5214688,9.84375 11.296875,9.84375 Z M11.296875,2.8125 C12.8476875,2.8125 14.109375,4.0741875 14.109375,5.625 C14.109375,7.1758125 12.8476875,8.4375 11.296875,8.4375 C9.7460625,8.4375 8.484375,7.1758125 8.484375,5.625 C8.484375,4.0741875 9.7460625,2.8125 11.296875,2.8125 Z M11.296875,4.21875 C10.5214688,4.21875 9.890625,4.84959375 9.890625,5.625 C9.890625,6.40040625 10.5214688,7.03125 11.296875,7.03125 C12.0722812,7.03125 12.703125,6.40040625 12.703125,5.625 C12.703125,4.84959375 12.0722813,4.21875 11.296875,4.21875 Z" id="Shape" fill="#FFFFFF" fill-rule="nonzero"></path>
    </g>
</svg>