<?xml version="1.0" encoding="UTF-8"?>
<svg width="24px" height="24px" viewBox="0 0 24 24" version="1.1" xmlns="http://www.w3.org/2000/svg" xmlns:xlink="http://www.w3.org/1999/xlink">
    <!-- Generator: Sketch 63.1 (92452) - https://sketch.com -->
    <title>Icon / Find</title>
    <desc>Created with Sketch.</desc>
    <g id="Icon-/-Find" stroke="none" stroke-width="1" fill="none" fill-rule="evenodd" opacity="0.5">
        <path d="M23.7151088,22.3961036 L17.860601,16.5420933 C19.315772,14.7922073 20.192456,12.5451606 20.192456,10.0967876 C20.192456,4.52953368 15.6634197,0.000248704663 10.0965389,0.000248704663 C4.52928497,0.000248704663 0,4.52940933 0,10.0966632 C0,15.663544 4.52928497,20.1925803 10.0965389,20.1925803 C12.5447876,20.1925803 14.7918342,19.3160207 16.5415959,17.8609741 L22.396228,23.7151088 C22.5782798,23.8971606 22.8170363,23.9881865 23.0556684,23.9881865 C23.2943005,23.9881865 23.533057,23.8971606 23.7152332,23.7149845 C24.0794611,23.3507565 24.0794611,22.7603316 23.7151088,22.3961036 Z M10.0965389,1.86540933 C14.6349016,1.86540933 18.327171,5.55792746 18.327171,10.0966632 C18.327171,14.6350259 14.6350259,18.3272953 10.0965389,18.3272953 C5.55780311,18.3272953 1.86528497,14.6350259 1.86528497,10.0966632 C1.86528497,5.55792746 5.55780311,1.86540933 10.0965389,1.86540933 Z M10.0956684,5.22143005 C8.13214508,5.22143005 6.53459067,6.81873575 6.53459067,8.78213472 C6.53459067,11.7626114 9.31772021,14.5796891 9.43622798,14.6981969 C9.61827979,14.8802487 9.85691192,14.9712746 10.0956684,14.9712746 C10.3343005,14.9712746 10.5729326,14.8802487 10.7549845,14.6983212 C10.8734922,14.5798135 13.6579896,11.7627358 13.6579896,8.78213472 C13.6578653,6.8188601 12.0598135,5.22143005 10.0956684,5.22143005 Z M10.0956684,7.08683938 C11.0312953,7.08683938 11.7925803,7.84737824 11.7925803,8.78225907 C11.7925803,10.2258653 10.7907979,11.7412228 10.0934301,12.6213886 C9.34172021,11.666114 8.39987565,10.1512539 8.39987565,8.78225907 C8.39987565,7.84737824 9.16053886,7.08683938 10.0956684,7.08683938 Z" id="Shape" fill="#FFFFFF" fill-rule="nonzero"></path>
    </g>
</svg>