<?xml version="1.0" encoding="UTF-8"?>
<svg width="24px" height="24px" viewBox="0 0 24 24" version="1.1" xmlns="http://www.w3.org/2000/svg" xmlns:xlink="http://www.w3.org/1999/xlink">
    <!-- Generator: Sketch 63.1 (92452) - https://sketch.com -->
    <title>Icon / Food</title>
    <desc>Created with Sketch.</desc>
    <g id="Icon-/-Food" stroke="none" stroke-width="1" fill="none" fill-rule="evenodd" opacity="0.5">
        <path d="M22.59375,12.703125 L23.296875,12.703125 C23.6852417,12.703125 24,12.3883667 24,12 C24,5.39245603 18.6069946,0 12,0 C5.39245603,0 0,5.39300536 0,12 C0,12.1864013 0.0741577031,12.3652954 0.205993641,12.4971314 C0.337829578,12.6291504 0.516723656,12.703125 0.703125,12.703125 L1.40625,12.703125 L1.40625,16.921875 L0.703125,16.921875 C0.314758312,16.921875 0,17.2366333 0,17.625 C0,21.1237793 2.87713622,24 6.375,24 L17.625,24 C21.1237793,24 24,21.1228638 24,17.625 C24,17.2366333 23.6852417,16.921875 23.296875,16.921875 L22.59375,16.921875 C22.59375,16.4093628 22.59375,13.2172852 22.59375,12.703125 Z M21.1875,16.9689331 C19.7684326,17.1593628 18.47406,17.9176026 17.626831,19.0466309 C16.6516113,17.7310181 15.0957642,16.921875 13.40625,16.921875 L7.61846925,16.921875 C8.33880614,16.0391235 9.41857913,15.515625 10.59375,15.515625 L21.1875,15.515625 L21.1875,16.9689331 Z M2.8125,15.5797119 C3.71960447,15.7454224 4.54357912,16.2253418 5.12475586,16.921875 L2.8125,16.921875 L2.8125,15.5797119 Z M12,1.40625 C17.6050415,1.40625 22.2073974,5.7826538 22.5706787,11.2974243 L1.42932131,11.296875 C1.79260256,5.78210447 6.39495848,1.40625 12,1.40625 Z M21.1875,12.703125 L21.1875,14.109375 L10.59375,14.109375 C9.61743164,14.109375 8.66217042,14.3807373 7.83160402,14.8939819 C7.26214598,15.2460938 6.76812745,15.701294 6.37316897,16.2341309 C5.52593995,15.1051026 4.23156741,14.3468628 2.8125,14.1564331 L2.8125,12.7025757 L21.1875,12.703125 Z M22.5441284,18.3275757 C22.2015381,20.7355957 20.1262207,22.59375 17.625,22.59375 L6.375,22.59375 C3.8737793,22.59375 1.79846194,20.736145 1.45587159,18.328125 L13.40625,18.328125 C14.8666992,18.328125 16.180481,19.1359863 16.8391113,20.4382324 L16.9795532,20.7630615 C17.0906982,21.0206909 17.3444824,21.1875 17.625,21.1875 C17.9055176,21.1875 18.1593018,21.0206909 18.2704468,20.7630615 L18.4108887,20.4382324 C19.0601807,19.1557617 20.4239502,18.3275757 21.890625,18.3275757 L22.5441284,18.3275757 Z M12,5.671875 C12.3883667,5.671875 12.703125,5.98663331 12.703125,6.375 L12.703125,6.375 L12.703125,7.78125 C12.703125,8.16961669 12.3883667,8.484375 12,8.484375 C11.6116333,8.484375 11.296875,8.16961669 11.296875,7.78125 L11.296875,7.78125 L11.296875,6.375 C11.296875,5.98663331 11.6116333,5.671875 12,5.671875 Z M7.28411864,4.47161864 C7.55859375,4.19696044 8.00390625,4.19696044 8.27838136,4.47161864 C8.55303956,4.74609375 8.55303956,5.19122316 8.27838136,5.46588136 L8.27838136,5.46588136 L6.87213136,6.87213136 C6.59765625,7.14678956 6.15234375,7.14678956 5.87786864,6.87213136 C5.60321044,6.59747316 5.60321044,6.15234375 5.87786864,5.87786864 L5.87786864,5.87786864 Z M15.7216186,4.47161864 C15.9960937,4.19696044 16.4414062,4.19696044 16.7158814,4.47161864 L16.7158814,4.47161864 L18.1221314,5.87786864 C18.3967896,6.15234375 18.3967896,6.59747316 18.1221314,6.87213136 C17.8474732,7.14678956 17.4023438,7.14678956 17.1278686,6.87213136 L17.1278686,6.87213136 L15.7216186,5.46588136 C15.4469604,5.19122316 15.4469604,4.74609375 15.7216186,4.47161864 Z" id="Shape" fill="#FFFFFF" fill-rule="nonzero"></path>
    </g>
</svg>