<?xml version="1.0" encoding="UTF-8"?>
<svg width="24px" height="24px" viewBox="0 0 24 24" version="1.1" xmlns="http://www.w3.org/2000/svg" xmlns:xlink="http://www.w3.org/1999/xlink">
    <!-- Generator: Sketch 63.1 (92452) - https://sketch.com -->
    <title>Icon / Home</title>
    <desc>Created with Sketch.</desc>
    <g id="Icon-/-Home" stroke="none" stroke-width="1" fill="none" fill-rule="evenodd" opacity="0.5">
        <path d="M11.5829531,1.24595312 C11.8784531,0.9745 12.3338906,0.97628125 12.6268594,1.25082812 L12.6268594,1.25082812 L23.7569531,11.6644375 C24.0665156,11.9540781 24.0824062,12.4397031 23.793,12.7493125 C23.5033594,13.0586875 23.01825,13.0752812 22.708125,12.7854062 L22.708125,12.7854062 L21.3130041,11.479633 L21.3134531,21.5638281 C21.3134531,21.9524375 21.0247389,22.2735752 20.650044,22.3243995 L20.545875,22.3314063 L14.7889219,22.3314063 C14.3649844,22.3314063 14.0213438,21.9878125 14.0213438,21.5638281 L14.0213438,21.5638281 L14.0213438,16.7280156 L10.1578125,16.7280156 L10.1578125,21.5637813 C10.1578125,21.9877187 9.81421875,22.3314063 9.39023438,22.3314063 L9.39023438,22.3314063 L3.658875,22.3314063 C3.2349375,22.3314063 2.89129688,21.9877656 2.89129688,21.5637813 L2.89129688,21.5637813 L2.89100412,11.314633 L1.287,12.79 C1.1691,12.8983 1.0263,12.9629279 0.878928,12.984447 L0.767859375,12.9925123 C0.56034375,12.9925123 0.353625,12.9090156 0.20240625,12.7439687 C-0.084421875,12.4318281 -0.0639375,11.9464375 0.248203125,11.6596094 L0.248203125,11.6596094 Z M12.0977344,2.85789062 L4.42600412,9.90463302 L4.42645313,20.7962031 L8.62260938,20.7962031 L8.62260938,15.9603906 C8.62260938,15.5364531 8.96620313,15.1928125 9.3901875,15.1928125 L9.3901875,15.1928125 L14.7889219,15.1928125 C15.2128594,15.1928125 15.5565,15.5364063 15.5565,15.9603906 L15.5565,15.9603906 L15.5565,20.7962031 L19.77825,20.7962031 L19.7780041,10.043633 L12.0977344,2.85789062 Z" id="Path-2" fill="#FFFFFF" fill-rule="nonzero"></path>
    </g>
</svg>