<?xml version="1.0" encoding="UTF-8"?>
<svg width="24px" height="24px" viewBox="0 0 24 24" version="1.1" xmlns="http://www.w3.org/2000/svg" xmlns:xlink="http://www.w3.org/1999/xlink">
    <!-- Generator: Sketch 63.1 (92452) - https://sketch.com -->
    <title>Icon / Lessons</title>
    <desc>Created with Sketch.</desc>
    <g id="Icon-/-Lessons" stroke="none" stroke-width="1" fill="none" fill-rule="evenodd" opacity="0.5">
        <path d="M23.296875,0 L9.140625,0 C8.75225831,0 8.4375,0.314758313 8.4375,0.703125 L8.4375,5.625 L3.515625,5.625 C1.57708739,5.625 0,7.20208739 0,9.140625 L0,23.296875 C0,23.6852417 0.314758313,24 0.703125,24 L20.390625,24 C20.7789917,24 21.09375,23.6852417 21.09375,23.296875 L21.09375,21.890625 C21.09375,19.9520874 19.5166626,18.375 17.578125,18.375 C16.4293213,18.375 15.4075927,18.928894 14.765625,19.7836304 C14.1236573,18.928894 13.1019287,18.375 11.953125,18.375 C10.8043213,18.375 9.78259275,18.928894 9.140625,19.7836304 C8.49865725,18.928894 7.47692869,18.375 6.328125,18.375 C4.38958739,18.375 2.8125,19.9520874 2.8125,21.890625 L2.8125,22.59375 L1.40625,22.59375 L1.40625,9.140625 C1.40625,7.97753906 2.35253906,7.03125 3.515625,7.03125 L11.953125,7.03125 C12.3407593,7.03125 12.65625,7.34674073 12.65625,7.734375 C12.65625,8.12200927 12.3407593,8.4375 11.953125,8.4375 L6.328125,8.4375 C5.93975831,8.4375 5.625,8.75225831 5.625,9.140625 L5.625,14.2770996 C4.80651853,14.5675049 4.21875,15.348999 4.21875,16.265625 C4.21875,17.4287109 5.16503906,18.375 6.328125,18.375 C7.49121094,18.375 8.4375,17.4287109 8.4375,16.265625 C8.4375,15.348999 7.84973147,14.5675049 7.03125,14.2770996 L7.03125,9.84375 L8.4375,9.84375 L8.4375,12 C8.4375,12.3883667 8.75225831,12.703125 9.140625,12.703125 L23.296875,12.703125 C23.6852417,12.703125 24,12.3883667 24,12 L24,0.703125 C24,0.314758312 23.6852417,0 23.296875,0 Z M17.578125,19.78125 C18.7412109,19.78125 19.6875,20.7275391 19.6875,21.890625 L19.6875,22.59375 L15.46875,22.59375 L15.46875,21.890625 C15.46875,20.7275391 16.4150391,19.78125 17.578125,19.78125 Z M11.953125,19.78125 C13.1162109,19.78125 14.0625,20.7275391 14.0625,21.890625 L14.0625,22.59375 L9.84375,22.59375 L9.84375,21.890625 C9.84375,20.7275391 10.7900391,19.78125 11.953125,19.78125 Z M4.21875,21.890625 C4.21875,20.7275391 5.16503906,19.78125 6.328125,19.78125 C7.49121094,19.78125 8.4375,20.7275391 8.4375,21.890625 L8.4375,22.59375 L4.21875,22.59375 L4.21875,21.890625 Z M6.328125,16.96875 C5.94049073,16.96875 5.625,16.6532593 5.625,16.265625 C5.625,15.8779907 5.94049073,15.5625 6.328125,15.5625 C6.71575927,15.5625 7.03125,15.8779907 7.03125,16.265625 C7.03125,16.6532593 6.71575927,16.96875 6.328125,16.96875 Z M11.953125,14.15625 C13.1162109,14.15625 14.0625,15.1025391 14.0625,16.265625 C14.0625,17.4287109 13.1162109,18.375 11.953125,18.375 C10.7900391,18.375 9.84375,17.4287109 9.84375,16.265625 C9.84375,15.1025391 10.7900391,14.15625 11.953125,14.15625 Z M17.578125,14.15625 C18.7412109,14.15625 19.6875,15.1025391 19.6875,16.265625 C19.6875,17.4287109 18.7412109,18.375 17.578125,18.375 C16.4150391,18.375 15.46875,17.4287109 15.46875,16.265625 C15.46875,15.1025391 16.4150391,14.15625 17.578125,14.15625 Z M11.953125,15.5625 C11.5654907,15.5625 11.25,15.8779907 11.25,16.265625 C11.25,16.6532593 11.5654907,16.96875 11.953125,16.96875 C12.3407593,16.96875 12.65625,16.6532593 12.65625,16.265625 C12.65625,15.8779907 12.3407593,15.5625 11.953125,15.5625 Z M17.578125,15.5625 C17.1904907,15.5625 16.875,15.8779907 16.875,16.265625 C16.875,16.6532593 17.1904907,16.96875 17.578125,16.96875 C17.9657593,16.96875 18.28125,16.6532593 18.28125,16.265625 C18.28125,15.8779907 17.9657593,15.5625 17.578125,15.5625 Z M22.59375,1.40625 L22.59375,11.296875 L9.84375,11.296875 L9.84375,9.84375 L11.953125,9.84375 C13.1162109,9.84375 14.0625,8.89746094 14.0625,7.734375 C14.0625,7.64611819 14.0564575,7.55950927 14.0458374,7.47418214 L20.7050171,4.1445923 C21.0523682,3.97082522 21.1931763,3.54858398 21.0194092,3.20123292 C20.8458252,2.85388181 20.4234009,2.71307372 20.0760498,2.88684084 L13.4159546,6.21679688 C13.036377,5.85076903 12.520752,5.625 11.953125,5.625 L9.84375,5.625 L9.84375,1.40625 L22.59375,1.40625 Z M4.21875,0 C5.76965334,0 7.03125,1.26159666 7.03125,2.8125 C7.03125,4.36340334 5.76965334,5.625 4.21875,5.625 C2.66784666,5.625 1.40625,4.36340334 1.40625,2.8125 C1.40625,1.26159666 2.66784666,0 4.21875,0 Z M4.21875,1.40625 C3.44329833,1.40625 2.8125,2.03704833 2.8125,2.8125 C2.8125,3.58795167 3.44329833,4.21875 4.21875,4.21875 C4.99420167,4.21875 5.625,3.58795167 5.625,2.8125 C5.625,2.03704833 4.99420167,1.40625 4.21875,1.40625 Z" id="Shape" fill="#FFFFFF" fill-rule="nonzero"></path>
    </g>
</svg>