<?xml version="1.0" encoding="UTF-8"?>
<svg width="24px" height="24px" viewBox="0 0 24 24" version="1.1" xmlns="http://www.w3.org/2000/svg" xmlns:xlink="http://www.w3.org/1999/xlink">
    <!-- Generator: Sketch 63.1 (92452) - https://sketch.com -->
    <title>Icon / List</title>
    <desc>Created with Sketch.</desc>
    <g id="Icon-/-List" stroke="none" stroke-width="1" fill="none" fill-rule="evenodd" opacity="0.5">
        <path d="M20.5543595,7.00911539 L4.10108145,7.00911539 C2.03279327,7.00911539 0.430627949,8.83234996 0.704781974,10.8882939 L2.05654296,21.0265013 C2.28258744,22.7216471 3.74267704,24 5.45284244,24 L19.2025985,24 C20.9127639,24 22.3728535,22.7216941 22.5988979,21.0265013 L23.9506589,10.8882939 C24.2245313,8.83432127 22.6244312,7.00911539 20.5543595,7.00911539 L20.5543595,7.00911539 Z M20.8246107,8.5045577 C21.7287748,8.5045577 22.4353423,9.32859367 22.3142442,10.2720325 L20.9180764,21.1497304 C20.8189388,21.9220973 20.1785438,22.5045577 19.428443,22.5045577 L5.22699329,22.5045577 C4.47689248,22.5045577 3.83649749,21.9220973 3.73735988,21.1497304 L2.34119215,10.2720325 C2.22198464,9.34350014 2.91265136,8.5045577 3.83082556,8.5045577 L20.8246107,8.5045577 Z M12.3179224,11.0001516 C12.0798854,11.0047292 11.8603419,11.1296072 11.7347315,11.3317556 L10.4745997,13.3581838 L8.18211925,14.0204763 C7.95342053,14.0865774 7.77361094,14.2640066 7.7043971,14.4919729 C7.6353663,14.7197561 7.68626964,14.9671316 7.83952891,15.1491384 L9.37743175,16.9737844 L9.29906261,19.3587332 C9.29118906,19.5967702 9.40434822,19.8225393 9.59972177,19.9587698 C9.7954615,20.0950002 10.046316,20.1228323 10.2665919,20.0332937 L12.4772242,19.1344289 L14.7211818,19.9461355 C14.9449366,20.0270681 15.1946925,19.9893483 15.3845729,19.8456106 C15.5744532,19.7018728 15.6786402,19.4718923 15.6616114,19.2344045 L15.4898585,16.8542165 L16.9552516,14.9709768 C17.1013698,14.7829275 17.1425685,14.5337209 17.0647487,14.3088674 C16.9867457,14.0838308 16.7999781,13.9137258 16.568899,13.8565969 L14.2522487,13.2842092 L12.9139308,11.3086843 C12.7802638,11.1114797 12.5561427,10.9952077 12.3179224,11.0001516 Z M12.3569239,12.9939871 L13.2394923,14.2965993 C13.3369044,14.4403371 13.4843043,14.5430593 13.6529444,14.5848074 L15.1804103,14.9620046 L14.2143458,16.2038259 C14.1075953,16.3409719 14.0554103,16.5127248 14.0678614,16.6861257 L14.1810206,18.2553396 L12.7015284,17.7203054 C12.5380152,17.6611623 12.3585719,17.6646413 12.1976222,17.7301931 L10.7401026,18.3227224 L10.7919215,16.7502126 C10.7975978,16.5764455 10.7388209,16.4068899 10.6267604,16.2739553 L9.61272227,15.0709524 L11.1242579,14.6342458 C11.2912501,14.5860891 11.4344386,14.4776906 11.5261744,14.3301077 L12.3569239,12.9939871 Z M20.3416092,3.49024022 C20.8862114,3.49024022 21.327697,3.9379545 21.327697,4.49024022 C21.327697,5.04252593 20.8862114,5.49024022 20.3416092,5.49024022 L20.3416092,5.49024022 L4.3137848,5.49024022 C3.76918258,5.49024022 3.32769698,5.04252593 3.32769698,4.49024022 C3.32769698,3.9379545 3.76918258,3.49024022 4.3137848,3.49024022 L4.3137848,3.49024022 Z M18.836168,0 C19.3805334,0 19.821827,0.441293638 19.821827,0.985659052 C19.821827,1.53002447 19.3805334,1.9713181 18.836168,1.9713181 L18.836168,1.9713181 L5.81922599,1.9713181 C5.27486057,1.9713181 4.83356693,1.53002447 4.83356693,0.985659052 C4.83356693,0.441293638 5.27486057,0 5.81922599,0 L5.81922599,0 Z" id="Shape" fill="#FFFFFF" fill-rule="nonzero"></path>
    </g>
</svg>