<?xml version="1.0" encoding="UTF-8"?>
<svg width="24px" height="24px" viewBox="0 0 24 24" version="1.1" xmlns="http://www.w3.org/2000/svg" xmlns:xlink="http://www.w3.org/1999/xlink">
    <!-- Generator: Sketch 63.1 (92452) - https://sketch.com -->
    <title>Icon / MapPin</title>
    <desc>Created with Sketch.</desc>
    <g id="Icon-/-MapPin" stroke="none" stroke-width="1" fill="none" fill-rule="evenodd" opacity="0.5">
        <path d="M11.71875,0 C6.92601563,0 3.02685938,3.89915625 3.02685938,8.69184375 C3.02685938,14.6397188 10.80525,23.3715469 11.1364219,23.7403594 C11.4474844,24.0868125 11.9905781,24.0862031 12.3010781,23.7403594 C12.63225,23.3715469 20.4106406,14.6397188 20.4106406,8.69184375 C20.4106406,3.89915625 16.5114375,0 11.71875,0 Z M11.71875,1.56525 C15.6484219,1.56525 18.8453906,4.76221875 18.8453906,8.69189063 C18.8453906,12.7741406 14.3372344,18.9079688 11.71875,22.0185469 C9.10092188,18.9089531 4.59210938,12.774 4.59210938,8.6919375 C4.59210938,4.76221875 7.78907813,1.56525 11.71875,1.56525 Z M11.71875,4.31878125 C9.30740625,4.31878125 7.3456875,6.28054688 7.3456875,8.69189063 C7.3456875,11.1032344 9.30745313,13.065 11.71875,13.065 C14.1300469,13.065 16.0917656,11.1032344 16.0917656,8.69189063 C16.0917656,6.28054688 14.1300469,4.31878125 11.71875,4.31878125 Z M11.71875,5.88403125 C13.2669844,5.88403125 14.5265625,7.14360938 14.5265625,8.69189063 C14.5265625,10.2401719 13.2669844,11.49975 11.71875,11.49975 C10.1704688,11.49975 8.9109375,10.2401719 8.9109375,8.69189063 C8.9109375,7.14360938 10.1705156,5.88403125 11.71875,5.88403125 Z" id="Shape" fill="#FFFFFF" fill-rule="nonzero"></path>
    </g>
</svg>