<?xml version="1.0" encoding="UTF-8"?>
<svg width="24px" height="24px" viewBox="0 0 24 24" version="1.1" xmlns="http://www.w3.org/2000/svg" xmlns:xlink="http://www.w3.org/1999/xlink">
    <!-- Generator: Sketch 63.1 (92452) - https://sketch.com -->
    <title>Icon / More</title>
    <desc>Created with Sketch.</desc>
    <g id="Icon-/-More" stroke="none" stroke-width="1" fill="none" fill-rule="evenodd" opacity="0.5">
        <path d="M20.4722812,8.03478125 C18.5271094,8.03478125 16.9445625,9.61732812 16.9445625,11.5625 C16.9445625,13.5076719 18.5268281,15.0902187 20.4722812,15.0902187 C22.4174531,15.0902187 24,13.5079531 24,11.5625 C24,9.61732812 22.4174531,8.03478125 20.4722812,8.03478125 Z M12,8.03478125 C13.9454531,8.03478125 15.5277187,9.61732812 15.5277187,11.5625 C15.5277187,13.5079531 13.9454531,15.0902187 12,15.0902187 C10.0548281,15.0902187 8.47228125,13.5076719 8.47228125,11.5625 C8.47228125,9.61732812 10.0548281,8.03478125 12,8.03478125 Z M3.52771875,8.03478125 C5.47289062,8.03478125 7.0554375,9.61732812 7.0554375,11.5625 C7.0554375,13.5079531 5.47289062,15.0902187 3.52771875,15.0902187 C1.58254688,15.0902187 0,13.5079531 0,11.5625 C0,9.61732812 1.58254688,8.03478125 3.52771875,8.03478125 Z M20.4722812,9.76971875 C21.4609219,9.76971875 22.2650625,10.5738594 22.2650625,11.5625 C22.2650625,12.5511406 21.4609219,13.3552812 20.4722812,13.3552812 C19.4836406,13.3552812 18.6795,12.5511406 18.6795,11.5625 C18.6795,10.5738594 19.4836406,9.76971875 20.4722812,9.76971875 Z M12,9.76971875 C11.0113594,9.76971875 10.2072187,10.5738594 10.2072187,11.5625 C10.2072187,12.5511406 11.0113594,13.3552812 12,13.3552812 C12.9886406,13.3552812 13.7927812,12.5511406 13.7927812,11.5625 C13.7927812,10.5738594 12.9886406,9.76971875 12,9.76971875 Z M3.52771875,9.76971875 C2.53907813,9.76971875 1.7349375,10.5738594 1.7349375,11.5625 C1.7349375,12.5511406 2.53907813,13.3552812 3.52771875,13.3552812 C4.51603125,13.3552812 5.3205,12.5511406 5.3205,11.5625 C5.3205,10.5738594 4.51635938,9.76971875 3.52771875,9.76971875 Z" id="Shape" fill="#FFFFFF" fill-rule="nonzero"></path>
    </g>
</svg>