<?xml version="1.0" encoding="UTF-8"?>
<svg width="24px" height="24px" viewBox="0 0 24 24" version="1.1" xmlns="http://www.w3.org/2000/svg" xmlns:xlink="http://www.w3.org/1999/xlink">
    <!-- Generator: Sketch 63.1 (92452) - https://sketch.com -->
    <title>Icon / Music</title>
    <desc>Created with Sketch.</desc>
    <g id="Icon-/-Music" stroke="none" stroke-width="1" fill="none" fill-rule="evenodd" opacity="0.5">
        <path d="M23.4360469,0.2641875 C23.199375,0.058921875 22.8852187,-0.033234375 22.5751406,0.01078125 L7.44510938,2.17223438 C6.91265625,2.2483125 6.51721875,2.7043125 6.51721875,3.24215625 L6.51721875,7.56501563 L6.51721875,15.9128906 C5.87709375,15.5399531 5.13398438,15.3252188 4.34123438,15.3252188 C1.94953125,15.3252188 0.003796875,17.271 0.003796875,19.6626563 C0.003796875,22.0543125 1.94953125,24.0000938 4.34123438,24.0000938 C6.7329375,24.0000938 8.67867188,22.0543125 8.67867188,19.6626563 L8.67867188,8.50232813 L21.6472969,6.64964063 L21.6472969,13.7514844 C21.0071719,13.3785469 20.2640625,13.1638125 19.4713125,13.1638125 C17.0796094,13.1638125 15.133875,15.1095938 15.133875,17.50125 C15.133875,19.8929063 17.0796094,21.8386875 19.4713125,21.8386875 C21.8630156,21.8386875 23.80875,19.8929063 23.80875,17.50125 L23.80875,5.40351563 L23.80875,1.08065625 C23.80875,0.76734375 23.6727188,0.469453125 23.4360469,0.2641875 Z M4.3411875,21.8385938 C3.141375,21.8385938 2.16520313,20.8624219 2.16520313,19.6626094 C2.16520313,18.4627969 3.141375,17.486625 4.3411875,17.486625 C5.541,17.486625 6.51717188,18.4627969 6.51717188,19.6626094 C6.51717188,20.8624219 5.541,21.8385938 4.3411875,21.8385938 Z M21.64725,4.46620313 L8.678625,6.31889063 L8.678625,4.17942188 L21.64725,2.32673438 L21.64725,4.46620313 Z M19.4712656,19.6771406 C18.2714531,19.6771406 17.2952813,18.7009687 17.2952813,17.5011562 C17.2952813,16.3013437 18.2714531,15.3251719 19.4712656,15.3251719 C20.6710781,15.3251719 21.64725,16.3013437 21.64725,17.5011562 C21.64725,18.7009687 20.6710781,19.6771406 19.4712656,19.6771406 Z" id="Shape" fill="#FFFFFF" fill-rule="nonzero"></path>
    </g>
</svg>