<?xml version="1.0" encoding="UTF-8"?>
<svg width="24px" height="24px" viewBox="0 0 24 24" version="1.1" xmlns="http://www.w3.org/2000/svg" xmlns:xlink="http://www.w3.org/1999/xlink">
    <!-- Generator: Sketch 63.1 (92452) - https://sketch.com -->
    <title>Icon / Places</title>
    <desc>Created with Sketch.</desc>
    <g id="Icon-/-Places" stroke="none" stroke-width="1" fill="none" fill-rule="evenodd" opacity="0.5">
        <path d="M18.5969238,19.0979004 C17.447937,18.7792969 15.9730224,18.5546265 14.3551026,18.4471435 C16.9434815,14.6065064 18.2801513,12.6776733 19.0248413,11.2318725 C19.739502,9.84411619 19.875,8.93206786 19.875,7.734375 C19.875,3.46966552 16.4053345,0 12.140625,0 C7.87591552,0 4.40625,3.46966552 4.40625,7.734375 C4.40625,10.4481811 5.11010742,11.2992554 9.92633058,18.4471435 C8.30822756,18.5546265 6.83349609,18.7792969 5.68432617,19.0979004 C4.5507202,19.4122925 3,20.0092163 3,21.1875 C3,22.451294 4.77502444,23.053894 6.0038452,23.361145 C7.65161133,23.7731323 9.83111573,24 12.140625,24 C14.4501343,24 16.6296387,23.7731323 18.2774048,23.361145 C19.5058594,23.0540771 21.28125,22.451294 21.28125,21.1875 C21.28125,20.0092163 19.7303467,19.4122925 18.5969238,19.0979004 Z M5.8125,7.734375 C5.8125,4.24511719 8.65136719,1.40625 12.140625,1.40625 C15.6298828,1.40625 18.46875,4.24511719 18.46875,7.734375 C18.46875,9.84155273 17.9736328,10.574707 14.1203613,16.2808228 C13.5307617,17.1538696 12.8785401,18.119751 12.140625,19.2203979 C11.4120483,18.133667 10.7669677,17.1782227 10.1837768,16.3141479 C6.31018069,10.5758057 5.8125,9.83843995 5.8125,7.734375 Z M13.4404907,19.8068848 C15.1272583,19.8739013 16.7028809,20.0722046 17.9122925,20.3721314 C19.2894287,20.71344 19.723938,21.0606079 19.8433228,21.1875 C19.715332,21.3235474 19.2255249,21.7130127 17.6085205,22.0744629 C16.1099854,22.4093628 14.1681518,22.59375 12.140625,22.59375 C10.1130982,22.59375 8.17126462,22.4093628 6.67272947,22.0744629 C5.05572511,21.7130127 4.56610106,21.3235474 4.43792723,21.1875 C4.557312,21.0606079 4.99182131,20.71344 6.36895753,20.3721314 C7.57836914,20.0723877 9.15417478,19.8739013 10.8407593,19.8068848 C11.0705566,20.1494751 11.3087768,20.5050659 11.5559692,20.8751221 C11.6865234,21.0703125 11.9058838,21.1875 12.140625,21.1875 C12.3753662,21.1875 12.5947266,21.0703125 12.7252807,20.8751221 C12.9724732,20.5048828 13.2106934,20.149292 13.4404907,19.8068848 Z M12.0501709,2.95404052 C12.2883911,2.94909666 12.5125122,3.06536864 12.6461792,3.26257322 L12.6461792,3.26257322 L13.9844971,5.23809816 L16.3011474,5.81048583 C16.5322266,5.86761473 16.7189941,6.03771975 16.7969971,6.26275636 C16.8748169,6.48760988 16.8336182,6.73681641 16.6875,6.92486573 L16.6875,6.92486573 L15.2221069,8.80810547 L15.3938599,11.1882935 C15.4108887,11.4257812 15.3067017,11.6557617 15.1168213,11.7994995 C14.9269409,11.9432373 14.677185,11.980957 14.4534302,11.9000244 L14.4534302,11.9000244 L12.2094727,11.0883179 L9.99884034,11.9871826 C9.77856445,12.0767212 9.52770994,12.0488892 9.3319702,11.9126587 C9.13659666,11.7764282 9.0234375,11.5506592 9.03131105,11.3126221 L9.03131105,11.3126221 L9.10968019,8.92767333 L7.57177734,7.10302734 C7.41851808,6.92102053 7.36761473,6.67364503 7.43664553,6.44586183 C7.50585938,6.21789553 7.68566897,6.0404663 7.91436769,5.97436523 L7.91436769,5.97436523 L10.2068482,5.31207277 L11.46698,3.28564453 C11.5925903,3.08349609 11.8121338,2.95861819 12.0501709,2.95404052 Z M12.0891724,4.947876 L11.2584229,6.28399659 C11.166687,6.43157958 11.0234985,6.53997802 10.8565064,6.58813477 L10.8565064,6.58813477 L9.3449707,7.0248413 L10.3590088,8.22784425 C10.4710693,8.3607788 10.5298462,8.53033448 10.5241699,8.70410156 L10.5241699,8.70410156 L10.4723511,10.2766113 L11.9298706,9.68408203 C12.0908203,9.61853025 12.2702637,9.61505128 12.4337768,9.67419431 L12.4337768,9.67419431 L13.913269,10.2092285 L13.8001099,8.64001462 C13.7876587,8.46661378 13.8398438,8.29486083 13.9465943,8.15771484 L13.9465943,8.15771484 L14.9126587,6.91589353 L13.3851929,6.53869631 C13.2165527,6.49694822 13.0691528,6.39422606 12.9717407,6.25048828 L12.9717407,6.25048828 L12.0891724,4.947876 Z" id="Shape" fill="#FFFFFF" fill-rule="nonzero"></path>
    </g>
</svg>