<?xml version="1.0" encoding="UTF-8"?>
<svg width="24px" height="24px" viewBox="0 0 24 24" version="1.1" xmlns="http://www.w3.org/2000/svg" xmlns:xlink="http://www.w3.org/1999/xlink">
    <!-- Generator: Sketch 63.1 (92452) - https://sketch.com -->
    <title>Icon / Share</title>
    <desc>Created with Sketch.</desc>
    <g id="Icon-/-Share" stroke="none" stroke-width="1" fill="none" fill-rule="evenodd" opacity="0.5">
        <path d="M18.578125,16.96875 C17.6151733,16.96875 16.7415771,17.3582153 16.1060181,17.9875488 L10.3634643,14.1196289 C10.6710815,13.477478 10.84375,12.7584229 10.84375,12 C10.84375,11.2415771 10.6710815,10.522522 10.3634643,9.88037109 L16.1060181,6.01245117 C16.7415771,6.64178466 17.6151733,7.03125 18.578125,7.03125 C20.5166626,7.03125 22.09375,5.45416261 22.09375,3.515625 C22.09375,1.57708739 20.5166626,0 18.578125,0 C16.6395874,0 15.0625,1.57708739 15.0625,3.515625 C15.0625,3.98547366 15.1558838,4.43371584 15.3237915,4.84368895 L9.58087159,8.71179197 C8.67926027,7.70947266 7.37298583,7.078125 5.921875,7.078125 C3.20788572,7.078125 1,9.28601072 1,12 C1,14.7139893 3.20788572,16.921875 5.921875,16.921875 C7.37298583,16.921875 8.67926027,16.2905273 9.58087159,15.288208 L15.3237915,19.156311 C15.1558838,19.5662842 15.0625,20.0145263 15.0625,20.484375 C15.0625,22.4229126 16.6395874,24 18.578125,24 C20.5166626,24 22.09375,22.4229126 22.09375,20.484375 C22.09375,18.5458374 20.5166626,16.96875 18.578125,16.96875 Z M18.578125,1.40625 C19.7412109,1.40625 20.6875,2.35253906 20.6875,3.515625 C20.6875,4.67871094 19.7412109,5.625 18.578125,5.625 C17.4150391,5.625 16.46875,4.67871094 16.46875,3.515625 C16.46875,2.35253906 17.4150391,1.40625 18.578125,1.40625 Z M5.921875,15.515625 C3.98333739,15.515625 2.40625,13.9385376 2.40625,12 C2.40625,10.0614624 3.98333739,8.484375 5.921875,8.484375 C7.86041261,8.484375 9.4375,10.0614624 9.4375,12 C9.4375,13.9385376 7.86041261,15.515625 5.921875,15.515625 Z M18.578125,22.59375 C17.4150391,22.59375 16.46875,21.6474609 16.46875,20.484375 C16.46875,19.3212891 17.4150391,18.375 18.578125,18.375 C19.7412109,18.375 20.6875,19.3212891 20.6875,20.484375 C20.6875,21.6474609 19.7412109,22.59375 18.578125,22.59375 Z" id="Shape" fill="#FFFFFF" fill-rule="nonzero"></path>
    </g>
</svg>