<?xml version="1.0" encoding="UTF-8"?>
<svg width="24px" height="24px" viewBox="0 0 24 24" version="1.1" xmlns="http://www.w3.org/2000/svg" xmlns:xlink="http://www.w3.org/1999/xlink">
    <!-- Generator: Sketch 63.1 (92452) - https://sketch.com -->
    <title>Icon/Sports</title>
    <desc>Created with Sketch.</desc>
    <g id="Icon/Sports" stroke="none" stroke-width="1" fill="none" fill-rule="evenodd" opacity="0.5">
        <path d="M23.9271579,7.96453801 C24.0833216,4.16683041 23.5021754,1.15597661 23.4773801,1.0297076 C23.4224094,0.749988304 23.2037427,0.531321637 22.9240234,0.476397661 C22.825076,0.456935673 20.4639064,0.000280701754 17.2874854,0.000280701754 C16.5500351,0.000280701754 15.7609357,0.0257309942 14.9423626,0.0893567251 C14.9242573,0.0901520468 14.9062456,0.0914152047 14.8882339,0.0936140351 C13.6933801,0.188818713 12.4368655,0.366175439 11.1863392,0.665403509 C11.1449357,0.671532164 11.1040468,0.681356725 11.0640468,0.694877193 C8.59270175,1.30222222 6.15396491,2.39148538 4.27265497,4.27284211 C2.82984795,5.71564912 1.73450292,7.60678363 1.01712281,9.8937076 C0.54502924,11.3986901 0.235368421,13.0787368 0.0922573099,14.899462 C0.0915555556,14.9060117 0.0912748538,14.9126082 0.0907602339,14.9192047 C0.0633450292,15.270924 0.0415438596,15.6273216 0.026619883,15.9893333 C-0.12954386,19.7870409 0.451649123,22.797848 0.476444444,22.9241637 C0.531415205,23.203883 0.750081871,23.4225029 1.02980117,23.4774737 C1.12874854,23.4969357 3.48987135,23.9535439 6.6662924,23.9535439 C6.66652632,23.9535439 6.66661988,23.9535439 6.6668538,23.9535439 C7.40687719,23.9535439 8.19883041,23.9279532 9.02044444,23.8638129 C9.03410526,23.8630643 9.04776608,23.8621754 9.06138012,23.8606316 C10.2574503,23.7655205 11.515462,23.5880702 12.7674386,23.2885146 C12.8088889,23.282386 12.8498246,23.2725614 12.8898246,23.2589942 C15.361076,22.6516959 17.7998129,21.5623392 19.6811696,19.681076 C21.1239766,18.238269 22.2193216,16.3471345 22.9367018,14.0602573 C23.4085614,12.5560234 23.7181754,10.8769123 23.8613333,9.05726316 C23.8623626,9.04776608 23.8628772,9.03831579 23.8635322,9.02877193 C23.8906667,8.67892398 23.9123743,8.32449123 23.9271579,7.96453801 Z M14.7072749,1.51695906 L22.436538,9.24636257 C22.377731,9.89052632 22.291883,10.5629474 22.1701988,11.2471111 L12.7045146,1.78138012 C13.380117,1.6619883 14.0519298,1.57623392 14.7072749,1.51695906 Z M22.1805848,1.77338012 C22.3231345,2.68495906 22.5997661,4.82100585 22.5419415,7.36692398 L16.5869942,1.41183626 C16.8251696,1.40636257 17.0589474,1.40378947 17.2874854,1.40378947 C19.514152,1.40378947 21.3523743,1.64397661 22.1805848,1.77338012 Z M9.24659649,22.4368655 L1.51719298,14.7074152 C1.57595322,14.0636257 1.66194152,13.3910643 1.78367251,12.7066667 L11.2493099,22.1723977 C10.5737076,22.2918363 9.90189474,22.3775906 9.24659649,22.4368655 Z M6.6662924,22.5499883 C4.43981287,22.5499883 2.60182456,22.3098012 1.77347368,22.1804912 C1.63111111,21.2675556 1.35452632,19.1277661 1.41192982,16.5870409 L7.36687719,22.5419415 C7.12865497,22.5474152 6.89483041,22.5499883 6.6662924,22.5499883 Z M11.0762105,2.13791813 L21.8123977,12.874152 C21.2524444,14.9857778 20.2945965,17.0826667 18.6887485,18.6885614 C17.0930994,20.284117 15.0185731,21.2494503 12.877614,21.8159064 L2.14152047,11.0796725 C2.70123977,8.96898246 3.65890058,6.8714386 5.26507602,5.26526316 C6.86063158,3.6697076 8.93520468,2.70437427 11.0762105,2.13791813 Z M14.054269,7.3125614 C13.7802105,7.58661988 13.7802105,8.03092398 14.054269,8.30498246 L14.3553216,8.60603509 L13.662269,9.2991345 L13.3612164,8.99808187 C13.0872047,8.72402339 12.6428538,8.72402339 12.3687953,8.99808187 C12.0947368,9.27214035 12.0947368,9.71644444 12.3687953,9.99050292 L12.669848,10.2915556 L11.9769357,10.9845146 L11.675883,10.683462 C11.4018713,10.4094035 10.9575205,10.4094035 10.683462,10.683462 C10.4094035,10.9575205 10.4094035,11.4018246 10.683462,11.675883 L10.9845614,11.9769357 L10.2915556,12.6699415 L9.99050292,12.3689357 C9.71649123,12.0948772 9.27214035,12.0948772 8.99808187,12.3689357 C8.72402339,12.6429942 8.72402339,13.0872982 8.99808187,13.3613567 L9.2991345,13.6624094 L8.60608187,14.355462 L8.30502924,14.0543626 C8.03097076,13.7803509 7.58666667,13.7803041 7.31260819,14.0543158 C7.03854971,14.3283743 7.03854971,14.7726784 7.3125614,15.0467368 L8.90704094,16.6413099 C9.04407018,16.7783392 9.22367251,16.8468304 9.40327485,16.8468304 C9.58283041,16.8468304 9.76247953,16.7782924 9.89946199,16.6413099 C10.1735205,16.3672515 10.1735205,15.9229474 9.89950877,15.6488889 L9.59845614,15.3478363 L10.2915088,14.6547836 L10.5925614,14.9558363 C10.7295906,15.0928655 10.909193,15.1614035 11.0887485,15.1614035 C11.2683041,15.1614035 11.4479532,15.0929123 11.5849357,14.9558363 C11.8589942,14.6817778 11.8589942,14.2374737 11.5849357,13.9634152 L11.2839298,13.6623626 L11.9768889,12.9693567 L12.2778947,13.2703626 C12.414924,13.4073918 12.5944795,13.475883 12.7740819,13.475883 C12.9536842,13.475883 13.1332865,13.4073918 13.2703158,13.2703626 C13.5443743,12.9963041 13.5443743,12.552 13.2703158,12.2779415 L12.9693099,11.9769357 L13.662269,11.2840234 L13.9632749,11.5850292 C14.1003041,11.7220585 14.2799064,11.7905497 14.459462,11.7905497 C14.6390643,11.7905497 14.8186667,11.7220585 14.9556959,11.5850292 C15.2297544,11.3109708 15.2297544,10.8666667 14.9556959,10.5926082 L14.6546901,10.2916023 L15.3477427,9.59854971 L15.6487485,9.89955556 C15.7857778,10.0365848 15.9653801,10.1051228 16.1449825,10.1051228 C16.3245848,10.1051228 16.5041871,10.0366316 16.6411696,9.89955556 C16.9152281,9.62549708 16.9152281,9.18119298 16.6411696,8.9071345 L15.0466901,7.3125614 C14.7726784,7.03850292 14.3283275,7.03850292 14.054269,7.3125614 Z" id="Shape" fill="#FFFFFF" fill-rule="nonzero"></path>
    </g>
</svg>