<?xml version="1.0" encoding="UTF-8"?>
<svg width="24px" height="24px" viewBox="0 0 24 24" version="1.1" xmlns="http://www.w3.org/2000/svg" xmlns:xlink="http://www.w3.org/1999/xlink">
    <!-- Generator: Sketch 63.1 (92452) - https://sketch.com -->
    <title>Icon/Star</title>
    <desc>Created with Sketch.</desc>
    <g id="Icon/Star" stroke="none" stroke-width="1" fill="none" fill-rule="evenodd" opacity="0.5">
        <path d="M22.4511911,7.64120164 L16.239682,6.73848843 L13.4617791,1.11017244 C13.1210186,0.41949614 12.5881798,0.0234375838 12.0000429,0.0234375838 C11.411906,0.0234375838 10.8790672,0.41949614 10.5381236,1.11017244 L7.76058683,6.73848843 L1.54871157,7.64120164 C0.786623905,7.75198083 0.245179111,8.1363206 0.0635378365,8.69570977 C-0.118103438,9.25509899 0.0939334295,9.88425163 0.645449073,10.4216681 L5.14033819,14.8028483 L4.0790551,20.9894549 C3.94337347,21.7806565 4.17463651,22.2549013 4.39253278,22.5132641 C4.64833202,22.8164878 5.02095299,22.9836637 5.44209708,22.9836637 C5.75923688,22.9836637 6.09633529,22.8908289 6.44423688,22.7079059 L12.0000429,19.786997 L17.556032,22.7079059 C17.9039336,22.8908289 18.241032,22.9836637 18.5579887,22.9836637 C18.9793159,22.9836637 19.3521199,22.8164878 19.6077361,22.5132641 C19.8256324,22.2549013 20.0568954,21.7806565 19.9210307,20.9894549 L18.8601138,14.8028483 L23.3546367,10.4218512 C23.9061524,9.88425163 24.1181892,9.25509899 23.9363649,8.69570977 C23.7547236,8.1363206 23.2132788,7.75198083 22.4511911,7.64120164 Z M22.3731879,9.41476753 L17.6138935,14.0539443 C17.4481825,14.2154439 17.3725596,14.4483549 17.4117444,14.676322 L18.5351004,21.2273097 C18.5678764,21.4179232 18.5537773,21.5261389 18.5407767,21.5766762 C18.4906057,21.5733803 18.3829393,21.5539711 18.2104533,21.4633335 L12.3272535,18.3703049 C12.2247141,18.3164717 12.1124701,18.2895551 12.0000429,18.2895551 C11.8876157,18.2895551 11.7751886,18.3164717 11.6728322,18.3703049 L5.78999871,21.4631504 C5.61751277,21.553788 5.50966322,21.5733803 5.45949217,21.5766762 C5.44667472,21.5261389 5.43239246,21.4179232 5.46516847,21.2273097 L6.58889074,14.6765051 C6.62789233,14.4483549 6.55226951,14.2154439 6.38655848,14.0541274 L1.62708103,9.41476753 C1.48865276,9.27981832 1.43646752,9.18405381 1.4170583,9.1355307 C1.46118686,9.10769857 1.55969798,9.0608234 1.75104387,9.03299127 L8.32876514,8.07717731 C8.55783087,8.04385197 8.75576858,7.89993058 8.85812491,7.69247135 L11.7993586,1.73255016 C11.8850522,1.55914865 11.9599426,1.48004681 12.000226,1.44653837 C12.0403262,1.48004681 12.1153998,1.55914865 12.2009103,1.73255016 L15.1423271,7.69247135 C15.2448665,7.89993058 15.4428042,8.04385197 15.67187,8.07717731 L22.2490419,9.03299127 C22.4405709,9.0608234 22.5388989,9.10769857 22.5830275,9.1355307 C22.5636183,9.18387072 22.5116161,9.27981832 22.3731879,9.41476753 Z" id="Shape" fill="#FFFFFF" fill-rule="nonzero"></path>
    </g>
</svg>