<?xml version="1.0" encoding="UTF-8"?>
<svg width="24px" height="24px" viewBox="0 0 24 24" version="1.1" xmlns="http://www.w3.org/2000/svg" xmlns:xlink="http://www.w3.org/1999/xlink">
    <!-- Generator: Sketch 63.1 (92452) - https://sketch.com -->
    <title>Icon / Tags</title>
    <desc>Created with Sketch.</desc>
    <g id="Icon-/-Tags" stroke="none" stroke-width="1" fill="none" fill-rule="evenodd" opacity="0.5">
        <path d="M21.862,3.32189062 L21.862,2.38870313 C21.862,1.0715625 20.7904375,0 19.4732969,0 L12.8298906,0 C12.1917812,0 11.5919687,0.248484375 11.1407969,0.699703125 L1.74526562,10.0952813 C1.29404687,10.5464531 1.0455625,11.1463125 1.0455625,11.784375 C1.0455625,12.4224375 1.29404687,13.0222969 1.74526562,13.4734688 L2.69996875,14.4281719 C2.65951562,14.6036719 2.63809375,14.7848438 2.63809375,14.9693438 C2.63809375,15.6074063 2.88657812,16.2072656 3.33779687,16.6584375 L9.9810625,23.3015625 C10.4467187,23.7671719 11.0584375,24 11.6701094,24 C12.2817812,24 12.8935,23.7671719 13.3591562,23.3014688 L22.7547812,13.9058438 C23.206,13.454625 23.4544844,12.8548125 23.4544844,12.21675 L23.4544844,5.573625 C23.4544844,4.535625 22.7887187,3.65057813 21.862,3.32189062 Z M2.87129687,12.3473906 C2.72092187,12.1970156 2.63804687,11.9970469 2.63804687,11.7843281 C2.63804687,11.5716094 2.72092187,11.3717344 2.87129687,11.2212656 L12.266875,1.8256875 C12.4172969,1.67535937 12.6172187,1.59248437 12.8299375,1.59248437 L19.47325,1.59248437 C19.9122812,1.59248437 20.2694687,1.94967187 20.2694687,2.38870313 L20.2694687,3.18492188 L14.422375,3.18492188 C13.7842656,3.18492188 13.1844531,3.43340625 12.7332812,3.884625 L3.571,13.047 L2.87129687,12.3473906 Z M21.0657344,4.77735937 C21.5047656,4.77735937 21.862,5.13454687 21.862,5.57357813 L21.862,12.2167031 C21.862,12.4294219 21.779125,12.6293906 21.62875,12.7798125 L12.233125,22.1754375 C11.9225781,22.4859375 11.4175,22.4858438 11.1070937,22.1754375 L4.46378125,15.5323125 C4.31340625,15.3819375 4.23053125,15.1819687 4.23053125,14.96925 C4.23053125,14.7565312 4.31340625,14.5566562 4.46378125,14.4061875 L13.8593594,5.0105625 C14.0097812,4.86023437 14.2097031,4.77735937 14.4224219,4.77735937 L21.0657344,4.77735937 Z M17.8808125,6.36989063 C16.5636719,6.36989063 15.4921094,7.44145313 15.4921094,8.75859375 C15.4921094,10.0757344 16.5636719,11.1472969 17.8808125,11.1472969 C19.1979531,11.1472969 20.2695156,10.0757344 20.2695156,8.75859375 C20.2695156,7.44145313 19.1979531,6.36989063 17.8808125,6.36989063 Z M17.8808125,7.96242188 C18.3198437,7.96242188 18.6770312,8.31960938 18.6770312,8.75864063 C18.6770312,9.19767188 18.3198437,9.55485938 17.8808125,9.55485938 C17.4417812,9.55485938 17.0845937,9.19767188 17.0845937,8.75864063 C17.0845937,8.31960938 17.4417812,7.96242188 17.8808125,7.96242188 Z" id="Shape" fill="#FFFFFF" fill-rule="nonzero"></path>
    </g>
</svg>