<?xml version="1.0" encoding="UTF-8"?>
<svg width="24px" height="24px" viewBox="0 0 24 24" version="1.1" xmlns="http://www.w3.org/2000/svg" xmlns:xlink="http://www.w3.org/1999/xlink">
    <!-- Generator: Sketch 63.1 (92452) - https://sketch.com -->
    <title>Icon / Theater</title>
    <desc>Created with Sketch.</desc>
    <g id="Icon-/-Theater" stroke="none" stroke-width="1" fill="none" fill-rule="evenodd" opacity="0.5">
        <path d="M23.6910469,5.79276562 C23.497875,5.66198437 23.2523906,5.6355 23.0357344,5.72217187 C20.872875,6.58729687 18.5950781,7.02595312 16.265625,7.02595312 C16.0306406,7.02595312 15.7963594,7.02028125 15.5625,7.011375 L15.5625,0.703125 C15.5625,0.469828125 15.4467656,0.251671875 15.2535469,0.120890625 C15.0603281,-0.0099375 14.8148438,-0.036375 14.5982344,0.050296875 C12.4658437,0.90328125 10.1085469,1.354125 7.78125,1.354125 C5.45395312,1.354125 3.09665625,0.903234375 0.964265625,0.050296875 C0.747703125,-0.036328125 0.502125,-0.0099375 0.308953125,0.120890625 C0.115734375,0.25171875 0,0.469828125 0,0.703125 L0,9.04828125 C0,13.5316875 3.2145,17.4286875 7.64334375,18.3144844 C7.7325,18.3322969 7.82610937,18.3330937 7.91915625,18.3144844 C8.33896875,18.2305312 8.74828125,18.1230469 9.13209375,17.9975625 C10.2552188,21.0031406 12.8582813,23.3324531 16.1277656,23.9863594 C16.1732813,23.9954531 16.2195,24 16.2656719,24 C16.3118438,24 16.3580625,23.9954531 16.4035781,23.9863594 C20.8052344,23.106 24,19.1893125 24,14.6732812 L24,6.375 C24,6.14170312 23.8842656,5.92354687 23.6910469,5.79276562 Z M8.84020313,5.7928125 C8.64698438,5.92359375 8.53125,6.14170312 8.53125,6.375 L8.53125,11.3509219 C7.04775,11.1265312 5.48685937,11.6056406 4.42471875,12.6678281 C4.150125,12.9424219 4.150125,13.3875937 4.42471875,13.6621875 C4.69926563,13.9367344 5.14448438,13.9367812 5.41907812,13.6621875 C6.21782812,12.8634375 7.42078125,12.534375 8.53129687,12.7789687 L8.53129687,14.6732812 C8.53129687,15.34725 8.60296875,16.0077188 8.73867188,16.6469063 C8.4376875,16.7472656 8.11532813,16.8351094 7.78176563,16.9068281 C4.07915625,16.0997812 1.40625,12.817125 1.40625,9.04828125 L1.40625,1.71154687 C3.43889062,2.39953125 5.62251563,2.760375 7.78125,2.760375 C9.93998437,2.760375 12.1236094,2.39953125 14.15625,1.71154687 L14.15625,6.90403125 C12.5612344,6.71910937 11.0004844,6.32423437 9.49551562,5.72221875 C9.27895312,5.63554687 9.033375,5.66198437 8.84020313,5.7928125 Z M22.59375,7.38492187 L22.59375,14.6732812 C22.59375,18.4738594 19.9408125,21.7757813 16.265625,22.5785625 C12.5723906,21.7718437 9.9375,18.4545 9.9375,14.6732812 L9.9375,7.38492187 C12.00075,8.08865625 14.1394687,8.43220312 16.265625,8.43220312 C18.4309688,8.43225 20.5551094,8.08026562 22.59375,7.38492187 Z M18.5809219,17.1278437 C17.3042344,18.4044844 15.2269688,18.4044844 13.9502813,17.1278437 C13.6757344,16.85325 13.2305156,16.85325 12.9559688,17.1278437 C12.681375,17.4024375 12.681375,17.8476094 12.9559688,18.1222031 C13.8684375,19.0346719 15.0670313,19.4909062 16.265625,19.4909062 C17.4642188,19.4909062 18.6628125,19.0346719 19.5752813,18.1222031 C19.849875,17.8476094 19.849875,17.4024375 19.5752813,17.1278437 C19.3007344,16.85325 18.8555156,16.85325 18.5809219,17.1278437 Z M11.4179531,11.6855625 C11.2442813,12.0329062 11.3850938,12.45525 11.7323906,12.6289219 L14.5448906,14.0351719 C14.8921875,14.2087969 15.3145781,14.0680781 15.48825,13.7207344 C15.6619219,13.3733906 15.5211094,12.9510469 15.1738125,12.777375 L12.3613125,11.371125 C12.0139688,11.1974531 11.591625,11.3382656 11.4179531,11.6855625 Z M20.1698906,11.371125 L17.3573906,12.777375 C17.0100469,12.9510469 16.8692813,13.3733906 17.0429531,13.7207344 C17.2167187,14.0681719 17.6391094,14.20875 17.9863125,14.0351719 L20.7988125,12.6289219 C21.1461563,12.45525 21.2869219,12.0329062 21.11325,11.6855625 C20.9395313,11.3382656 20.5171875,11.1974531 20.1698906,11.371125 Z M6.06473437,5.7440625 C6.41320312,5.5726875 6.8345625,5.71621875 7.00598437,6.0646875 C7.17735937,6.41315625 7.03378125,6.8345625 6.6853125,7.0059375 L6.6853125,7.0059375 L3.8259375,8.4121875 C3.47751562,8.5835625 3.05610937,8.44007812 2.8846875,8.0915625 C2.7133125,7.74309375 2.85689062,7.3216875 3.20535937,7.1503125 L3.20535937,7.1503125 Z" id="Shape" fill="#FFFFFF" fill-rule="nonzero"></path>
    </g>
</svg>