<?xml version="1.0" encoding="UTF-8"?>
<svg width="24px" height="24px" viewBox="0 0 24 24" version="1.1" xmlns="http://www.w3.org/2000/svg" xmlns:xlink="http://www.w3.org/1999/xlink">
    <!-- Generator: Sketch 63.1 (92452) - https://sketch.com -->
    <title>Icon / Wellness</title>
    <desc>Created with Sketch.</desc>
    <g id="Icon-/-Wellness" stroke="none" stroke-width="1" fill="none" fill-rule="evenodd" opacity="0.5">
        <path d="M23.296875,14.0625 L22.2275391,14.0625 C21.6031494,10.9308472 20.0628662,7.95648192 17.6786499,5.58508303 C17.1941528,5.10333253 16.5124512,4.89916992 15.83844,5.02825927 C16.4972534,4.5130005 16.921875,3.71173097 16.921875,2.8125 C16.921875,1.26159666 15.6602783,0 14.109375,0 C12.5584717,0 11.296875,1.26159666 11.296875,2.8125 C11.296875,4.36340334 12.5584717,5.625 14.109375,5.625 C14.3505249,5.625 14.5847168,5.59442137 14.8081055,5.53710938 C14.5409546,5.77770994 14.3358765,6.08624269 14.2175903,6.44110106 L13.0400391,9.97338867 L10.59375,11.604126 C10.125,11.916687 9.80584716,12.3931275 9.69543459,12.9455566 C9.61962891,13.3244018 9.64819336,13.7078247 9.77435302,14.0625 L9.18768309,14.0625 C8.62426758,14.0625 8.09454347,14.2820435 7.69610597,14.680481 L5.5014038,16.875 L2.109375,16.875 C0.946289062,16.875 0,17.8212891 0,18.984375 L0,23.296875 C0,23.6852417 0.314758313,24 0.703125,24 L23.296875,24 C23.6852417,24 24,23.6852417 24,23.296875 L24,14.765625 C24,14.3772583 23.6852417,14.0625 23.296875,14.0625 Z M12.703125,2.8125 C12.703125,2.03704833 13.3339233,1.40625 14.109375,1.40625 C14.8848267,1.40625 15.515625,2.03704833 15.515625,2.8125 C15.515625,3.58795167 14.8848267,4.21875 14.109375,4.21875 C13.3339233,4.21875 12.703125,3.58795167 12.703125,2.8125 Z M11.3737793,12.774353 L14.020752,11.0095825 C14.15094,10.9227905 14.2483521,10.7953491 14.2977905,10.6470337 L15.5516968,6.88586428 C15.7130127,6.40191652 16.3346557,6.2318115 16.6869507,6.58227539 C18.763916,8.64788817 20.1721802,11.2203369 20.7912598,14.0625 L19.352417,14.0625 C18.9629517,12.4412842 18.28656,10.9229737 17.3355103,9.54217528 C17.1842651,9.32263181 16.9215088,9.20764163 16.6576538,9.24499509 C16.3937988,9.28234866 16.1735229,9.46600341 16.0892944,9.71887209 L15.4033814,11.7778931 L12.1538086,13.9442138 C11.8311768,14.1593628 11.3937378,14.0718384 11.178772,13.7492065 C10.9638061,13.4267578 11.0511474,12.9893189 11.3737793,12.774353 Z M16.3842773,12.8140869 C16.5142822,12.7272949 16.6118775,12.5996704 16.6613159,12.451355 L16.9423828,11.607605 C17.3510742,12.3881836 17.671875,13.2086792 17.9020386,14.0625 L14.5116577,14.0625 L16.3842773,12.8140869 Z M2.109375,18.28125 L5.79272461,18.28125 C5.97930909,18.28125 6.15802003,18.2070923 6.28985597,18.0752564 L8.69036864,15.6747436 C8.82330323,15.5419922 8.99981691,15.4682007 9.18768309,15.4682007 L22.59375,15.4682007 L22.59375,16.875 L9.76977539,16.875 C9.58319091,16.875 9.40447997,16.9491577 9.27264403,17.0809936 L6.66595458,19.6875 L2.109375,19.6875 C1.72174073,19.6875 1.40625,19.3720093 1.40625,18.984375 C1.40625,18.5967407 1.72174073,18.28125 2.109375,18.28125 L2.109375,18.28125 Z M22.59375,18.28125 L22.59375,22.59375 L1.40625,22.59375 L1.40625,20.9729004 C1.62634275,21.0509033 1.86291506,21.09375 2.109375,21.09375 L6.95727539,21.09375 C7.14367678,21.09375 7.32257081,21.0195923 7.45440675,20.8877564 L10.0610962,18.28125 L22.59375,18.28125 Z M5.671875,9.84375 C7.22277834,9.84375 8.484375,11.1053467 8.484375,12.65625 C8.484375,14.2071533 7.22277834,15.46875 5.671875,15.46875 C4.12097166,15.46875 2.859375,14.2071533 2.859375,12.65625 C2.859375,11.1053467 4.12097166,9.84375 5.671875,9.84375 Z M5.671875,11.25 C4.89642333,11.25 4.265625,11.8807983 4.265625,12.65625 C4.265625,13.4317017 4.89642333,14.0625 5.671875,14.0625 C6.44732667,14.0625 7.078125,13.4317017 7.078125,12.65625 C7.078125,11.8807983 6.44732667,11.25 5.671875,11.25 Z" id="Shape" fill="#FFFFFF" fill-rule="nonzero"></path>
    </g>
</svg>